<svg width="50" height="50" viewBox="0 0 50 50" fill="none" xmlns="http://www.w3.org/2000/svg">
<path fill-rule="evenodd" clip-rule="evenodd" d="M48.331 42.1742L42.0451 35.8878C41.5144 35.357 40.8087 35.1088 40.1132 35.1393L38.5249 33.553C40.2657 31.0372 41.3679 28.0476 41.5937 24.82H45.4271C46.1104 24.82 46.6635 24.2669 46.6635 23.5835C46.6635 22.9001 46.1104 22.3469 45.4271 22.3469H41.5937C40.9856 13.6505 34.014 6.6784 25.3182 6.07028V2.23655C25.3182 1.55319 24.7651 1 24.0818 1C23.3985 1 22.8453 1.55319 22.8453 2.23655V6.07028C14.1495 6.6784 7.17797 13.6505 6.56989 22.3469H2.73646C2.05315 22.3469 1.5 22.9001 1.5 23.5835C1.5 24.2669 2.05315 24.82 2.73646 24.82H6.56989C7.17797 33.5165 14.1495 40.4886 22.8453 41.0967V44.9304C22.8453 45.6138 23.3985 46.167 24.0818 46.167C24.7651 46.167 25.3182 45.6138 25.3182 44.9304V41.0967C28.5456 40.871 31.5349 39.7686 34.0505 38.0277L35.6388 39.6161C35.6367 39.6548 35.6367 39.6914 35.6367 39.73C35.6367 40.4174 35.9031 41.0622 36.3892 41.5462L42.6751 47.8326C43.4275 48.5851 44.4321 49 45.5039 49C46.5736 49 47.5782 48.5851 48.3327 47.8326C49.0851 47.0801 49.5 46.0754 49.5 45.0036C49.5 43.9338 49.0851 42.9291 48.3327 42.1745L48.331 42.1742ZM24.0819 36.2434C23.3986 36.2434 22.8454 36.7966 22.8454 37.4799V38.6128C15.5141 38.0149 9.6489 32.1494 9.05124 24.8176H10.184C10.8673 24.8176 11.4204 24.2644 11.4204 23.581C11.4204 22.8976 10.8673 22.3444 10.184 22.3444H9.05124C9.64911 15.0126 15.5141 9.14692 22.8454 8.54921V9.68205C22.8454 10.3654 23.3986 10.9186 24.0819 10.9186C24.7652 10.9186 25.3183 10.3654 25.3183 9.68205V8.54921C32.6496 9.14713 38.5149 15.0126 39.1125 22.3444H37.9798C37.2965 22.3444 36.7433 22.8976 36.7433 23.581C36.7433 24.2644 37.2965 24.8176 37.9798 24.8176H39.1125C38.5146 32.1494 32.6496 38.0151 25.3183 38.6128V37.4799C25.3183 36.7966 24.7652 36.2434 24.0819 36.2434ZM36.9671 35.4929L37.8863 36.4122L36.9121 37.3864L35.9929 36.4671C36.3305 36.1559 36.6559 35.8305 36.9671 35.4929ZM46.5802 46.0809C46.2934 46.3677 45.9111 46.5243 45.5024 46.5243C45.0936 46.5243 44.7093 46.3677 44.4245 46.0809L38.1387 39.7946C38.1203 39.7763 38.1122 39.7539 38.1122 39.7274C38.1122 39.701 38.1203 39.6786 38.1387 39.6603L40.1601 37.6387C40.1784 37.6204 40.2008 37.6123 40.2272 37.6123C40.2536 37.6123 40.278 37.6204 40.2943 37.6387L46.5802 43.9251C46.8669 44.2119 47.0235 44.5942 47.0235 45.003C47.0235 45.4118 46.8649 45.7962 46.5802 46.0809ZM35.6046 24.3233C35.9341 23.884 35.9341 23.278 35.6046 22.8387C32.7006 18.9663 28.4993 16.7454 24.0819 16.7454C19.6628 16.7454 15.4631 18.9663 12.5591 22.8387C12.2297 23.278 12.2297 23.884 12.5591 24.3233C15.4632 28.1957 19.6645 30.4166 24.0819 30.4166C28.501 30.4166 32.7006 28.1957 35.6046 24.3233ZM24.0819 27.8866C21.7086 27.8866 19.7767 25.9545 19.7767 23.5811C19.7767 21.2076 21.7086 19.2755 24.0819 19.2755C26.4551 19.2755 28.3871 21.2076 28.3871 23.5811C28.3871 25.9545 26.4551 27.8866 24.0819 27.8866ZM15.1336 23.5811C15.9125 22.6719 16.7808 21.893 17.7143 21.2523C17.4478 21.9784 17.3035 22.7634 17.3035 23.5811C17.3035 24.3987 17.4478 25.1816 17.7143 25.9098C16.7828 25.2711 15.9125 24.4902 15.1336 23.5811ZM30.4511 25.9098C30.7175 25.1837 30.8619 24.3987 30.8619 23.5811C30.8619 22.7634 30.7175 21.9805 30.4511 21.2523C31.3825 21.891 32.2529 22.6719 33.0317 23.5811C32.2529 24.4902 31.3824 25.2691 30.4511 25.9098ZM25.8042 23.5811C25.8042 24.5288 25.0314 25.3017 24.0837 25.3017C23.136 25.3017 22.3632 24.5288 22.3632 23.5811C22.3632 22.6333 23.136 21.8604 24.0837 21.8604C25.0314 21.8604 25.8042 22.6333 25.8042 23.5811Z" fill="#181818"/>
</svg>
