<svg width="50" height="50" viewBox="0 0 50 50" fill="none" xmlns="http://www.w3.org/2000/svg">
<path d="M44.4261 22.0642C44.1802 21.8434 43.8384 21.7663 43.5217 21.86L36.1425 24.0913C34.5565 24.5705 32.3664 24.3205 29.6323 23.3434C27.4879 22.3934 23.7954 22.8018 18.3479 24.5914C17.0058 24.4726 15.5096 24.3018 13.784 24.0684L6.47576 21.8601C6.159 21.7642 5.81722 21.8413 5.57133 22.0642C1.59101 25.6705 0.0865188 30.5604 1.54721 35.1434C1.64099 35.4393 1.87439 35.6685 2.17241 35.758L6.61329 37.0997L6.73208 37.1768L6.71541 37.1872C6.07981 37.5976 5.68801 38.2226 5.64219 38.9018C5.59842 39.5581 5.88184 40.2018 6.41948 40.6623L6.90504 41.081C7.30099 41.4227 7.80739 41.6415 8.34296 41.7352C8.33879 42.3623 8.62637 42.9686 9.14736 43.4165L9.52663 43.7394C10.0872 44.2207 10.8541 44.4665 11.6252 44.4665C11.7294 44.4665 11.8315 44.4603 11.9357 44.4519C12.0524 44.8749 12.3025 45.2686 12.6692 45.5853L13.0381 45.8999C13.5987 46.3832 14.3697 46.6291 15.1429 46.6291C15.3617 46.6291 15.5805 46.6082 15.7972 46.5687C15.9265 46.9374 16.1599 47.2749 16.4829 47.552L16.8517 47.8708C17.4123 48.3541 18.1813 48.6 18.9565 48.6C19.59 48.6 20.2277 48.4333 20.7529 48.0958L22.2096 47.1562L24.3957 48.5667C24.8479 48.8562 25.3856 49 25.9191 49C26.5693 49 27.2153 48.7875 27.6966 48.3729C27.6966 48.3729 28.0822 48.0437 28.8491 47.3833C29.0116 47.2416 29.1471 47.0833 29.2555 46.9124C29.6535 47.1145 30.1015 47.2166 30.5475 47.2166C31.1977 47.2166 31.8458 47.0041 32.3293 46.5874L33.4775 45.5999C33.6401 45.4582 33.7755 45.2999 33.8839 45.129C34.2819 45.3311 34.7299 45.4311 35.1759 45.4311C35.8282 45.4311 36.4742 45.2186 36.9598 44.804L38.108 43.8165C38.2706 43.6748 38.406 43.5165 38.5144 43.3456C38.9145 43.5477 39.3605 43.6498 39.8065 43.6498C40.4567 43.6498 41.1048 43.4373 41.5861 43.0227L42.7323 42.0372C43.2158 41.6206 43.4721 41.0414 43.4304 40.4497C43.3887 39.8393 43.0386 39.2788 42.476 38.9142L42.2384 38.758C42.8031 38.3371 43.2783 37.7559 43.6576 37.0184L47.8275 35.7579C48.1235 35.6683 48.359 35.4391 48.4527 35.1433C49.9136 30.5578 48.4086 25.668 44.4261 22.0642ZM7.64677 39.2374C7.60717 39.2041 7.5134 39.1145 7.51965 39.0311C7.52382 38.9686 7.58217 38.8686 7.73638 38.7707L9.43896 37.6748C9.63485 37.5478 9.89535 37.4873 10.1559 37.4873C10.4622 37.4873 10.7685 37.5728 10.9623 37.7394L10.9644 37.7415L11.4479 38.1561C11.4875 38.1915 11.5813 38.2811 11.5771 38.3644C11.5729 38.4249 11.5146 38.527 11.3604 38.6249L9.99955 39.504L9.65361 39.727C9.22641 39.9957 8.49076 39.9645 8.13647 39.6603L7.64677 39.2374ZM10.7518 42.3124L10.3726 41.9895C10.3142 41.9395 10.2184 41.8416 10.2267 41.7395C10.2329 41.6437 10.3246 41.5291 10.4705 41.4353L10.6706 41.3062C10.6747 41.3041 10.6768 41.302 10.681 41.2999L11.0123 41.0874L12.0543 40.4166C12.2689 40.2791 12.5482 40.2103 12.8274 40.2103C13.1546 40.2103 13.4818 40.3041 13.6923 40.4853L14.0695 40.8103C14.1278 40.8603 14.2258 40.9603 14.2174 41.0624C14.2112 41.1562 14.1216 41.2687 13.9819 41.3603L13.6422 41.5791L12.3961 42.3812C11.9293 42.6854 11.1478 42.652 10.7518 42.3124ZM14.2612 44.4708L13.8923 44.1583C13.834 44.1083 13.736 44.0062 13.7423 43.9021C13.7485 43.8042 13.8423 43.6896 13.9903 43.5937L14.6571 43.1625L14.9906 42.9479C14.9927 42.9458 14.9968 42.9437 14.9989 42.9416L15.5553 42.5833C15.77 42.4437 16.0534 42.377 16.3326 42.377C16.664 42.377 16.9912 42.4708 17.2058 42.6541C17.2058 42.6541 17.2079 42.6541 17.2079 42.6562L17.5767 42.9729C17.6351 43.0229 17.733 43.1229 17.7268 43.2271C17.7205 43.3208 17.6351 43.4291 17.4996 43.5229L16.7849 43.9854C16.7786 43.9896 16.7744 43.9937 16.7682 43.9979L15.9117 44.55C15.4449 44.848 14.6592 44.8146 14.2612 44.4708ZM19.7316 46.5146C19.2606 46.8188 18.4729 46.7855 18.079 46.4459L17.7081 46.1271C17.6497 46.0771 17.5518 45.9771 17.558 45.875C17.5643 45.7813 17.6539 45.6688 17.7935 45.575L18.5041 45.1167C18.5125 45.1104 18.5208 45.1062 18.5291 45.1L19.371 44.5562C19.5878 44.4167 19.8712 44.3479 20.1525 44.3479C20.4838 44.3479 20.811 44.4417 21.0236 44.625L21.3924 44.9417C21.4508 44.9917 21.5487 45.0917 21.5425 45.1958C21.5362 45.2938 21.4445 45.4084 21.2966 45.5021L19.7316 46.5146ZM41.5044 40.6105L40.3583 41.596C40.1186 41.8022 39.5934 41.821 39.3038 41.6355L37.8742 40.7147C37.8637 40.7084 37.8533 40.7001 37.845 40.6938C37.8387 40.6897 37.8325 40.6876 37.8262 40.6834L31.0264 36.3021C30.5887 36.0208 30.0073 36.1458 29.726 36.5833C29.4447 37.0208 29.5697 37.6021 30.0073 37.8834L36.8424 42.2876C36.8799 42.3147 36.9028 42.3376 36.9153 42.3543C36.907 42.3647 36.8945 42.3793 36.8778 42.3939L35.7337 43.3773C35.4878 43.5898 34.971 43.6085 34.6751 43.4189L33.2372 42.4918C33.2288 42.4876 33.2226 42.4814 33.2143 42.4772C33.2101 42.4751 33.2059 42.4731 33.2018 42.4689L26.3997 38.0854C25.9621 37.8042 25.3807 37.9292 25.0994 38.3667C24.8181 38.8042 24.9431 39.3855 25.3807 39.6667L32.2078 44.0668C32.2495 44.096 32.2745 44.121 32.2849 44.1356C32.2765 44.146 32.264 44.1606 32.2474 44.1752L31.1012 45.1606C30.8595 45.369 30.3385 45.3877 30.0467 45.2002L28.615 44.2772C28.6067 44.271 28.5984 44.2647 28.59 44.2606C28.5838 44.2564 28.5775 44.2543 28.5713 44.2502L21.7693 39.8667C21.3317 39.5855 20.7502 39.7104 20.4689 40.148C20.1876 40.5855 20.3126 41.1668 20.7502 41.448L27.5837 45.8502C27.6233 45.8793 27.6462 45.9023 27.6587 45.9189C27.6504 45.9293 27.6379 45.9418 27.6212 45.9585C26.8606 46.6127 26.4771 46.9398 26.473 46.944C26.2312 47.1523 25.7103 47.1711 25.4185 46.9836L23.37 45.6627C23.3971 45.5523 23.4138 45.4418 23.4221 45.3272C23.4679 44.6522 23.1783 43.9918 22.6239 43.5168L22.2551 43.2001C21.534 42.5813 20.4712 42.3522 19.4959 42.5335C19.3667 42.1647 19.1333 41.8251 18.8082 41.548L18.4373 41.2313C17.8017 40.6855 16.8993 40.4417 16.0261 40.5167C15.9094 40.0959 15.6615 39.7042 15.2988 39.3917L14.9196 39.0667C14.5153 38.7188 14.0026 38.4958 13.4587 38.3979C13.4712 37.7771 13.1899 37.175 12.6751 36.7333L12.1896 36.3187C11.2164 35.4812 9.59711 35.377 8.47176 36.0666L7.52151 35.4541C7.44857 35.4062 7.3673 35.3687 7.28394 35.3437L3.20359 34.1104C2.23664 30.4853 3.40365 26.7854 6.45036 23.8248L13.3105 25.8998C13.3584 25.9144 13.4064 25.9248 13.4564 25.9311C14.5234 26.0769 15.5049 26.1977 16.4198 26.2998C14.9048 27.9624 13.9107 29.4811 13.4022 30.9083C13.2585 31.3124 13.4064 31.7645 13.7628 32.0041C15.0381 32.8625 16.3072 33.1917 17.5368 32.9875C18.6725 32.7979 19.752 32.1521 20.7481 31.0624C22.4153 30.5791 23.7636 30.1687 24.7702 29.8395C26.6311 31.5124 28.5796 32.6937 30.6012 33.3812L39.5975 39.2811C39.6787 39.3582 39.7746 39.4207 39.8788 39.4665L41.448 40.4957C41.5001 40.529 41.5272 40.5582 41.5418 40.577C41.5334 40.5811 41.5211 40.5938 41.5044 40.6105ZM46.7956 34.1042L42.7152 35.3376C42.4526 35.4167 42.2359 35.6084 42.1254 35.8605C41.7128 36.8022 41.1731 37.3585 40.4479 37.5835L35.1213 34.0896C36.1716 34.073 37.2386 33.9355 38.3202 33.6771C38.8266 33.5563 39.137 33.0479 39.0162 32.5417C38.8953 32.0354 38.3868 31.725 37.8805 31.8458C35.6235 32.3875 33.4771 32.3313 31.4119 31.6729C31.3515 31.6458 31.2889 31.625 31.2264 31.6125C29.305 30.9646 27.4524 29.7895 25.6456 28.0812C25.3913 27.8416 25.0266 27.7624 24.6953 27.8749C23.6367 28.2353 22.0445 28.7228 19.9627 29.325C19.7876 29.375 19.6292 29.477 19.5105 29.6146C18.2038 31.1334 16.9347 31.5208 15.4739 30.8187C16.1157 29.4999 17.2827 28.0083 18.9561 26.3707C25.087 24.3582 27.74 24.5499 28.8881 25.0728C28.911 25.0832 28.936 25.0936 28.961 25.102C32.1432 26.2436 34.6688 26.4999 36.686 25.8916L43.5461 23.8165C46.5949 26.7791 47.764 30.4791 46.795 34.1042L46.7956 34.1042ZM24.9998 22.1354C30.8287 22.1354 35.5693 17.3936 35.5693 11.5666C35.5693 5.73963 30.8284 1 24.9998 1C19.1713 1 14.4282 5.73968 14.4282 11.5666C14.4282 17.3936 19.1712 22.1354 24.9998 22.1354ZM24.0579 2.93284V4.36413H25.9397L25.9418 2.93284C29.9804 3.37035 33.1999 6.58711 33.6357 10.6248H32.2041V12.506H33.6357C33.1981 16.5457 29.9805 19.7643 25.9418 20.2022V18.7709H24.06V20.2022C20.0192 19.7647 16.7997 16.5479 16.3617 12.506H17.7934V10.6248H16.3617C16.7993 6.58717 20.017 3.37019 24.0579 2.93284ZM21.7384 16.5998C21.8968 16.7019 22.074 16.7519 22.249 16.7519C22.5574 16.7519 22.8596 16.5998 23.0388 16.3227L24.7185 13.7331C24.8102 13.7456 24.9039 13.7518 24.9998 13.7518C26.2043 13.7518 27.1859 12.7726 27.1859 11.5663C27.1859 10.6976 26.6774 9.94752 25.9418 9.59546V5.54534C25.9418 5.02658 25.5208 4.60367 24.9999 4.60367C24.481 4.60367 24.0579 5.02451 24.0579 5.54534V9.59546C23.3223 9.94755 22.8138 10.6996 22.8138 11.5663C22.8138 11.9851 22.9326 12.3767 23.1368 12.7101L21.4593 15.2997C21.1779 15.7352 21.3008 16.3165 21.7384 16.5998ZM24.9998 11.8685C24.9394 11.8685 24.8831 11.8497 24.8373 11.8205C24.8352 11.8185 24.8331 11.8185 24.831 11.8164C24.7518 11.7622 24.6976 11.6705 24.6976 11.5664C24.6976 11.3997 24.8331 11.2643 24.9998 11.2643C25.1665 11.2643 25.302 11.3997 25.302 11.5664C25.302 11.733 25.1665 11.8685 24.9998 11.8685Z" fill="#181818"/>
</svg>
