<svg width="35" height="25" viewBox="0 0 35 25" fill="none" xmlns="http://www.w3.org/2000/svg">
<path fill-rule="evenodd" clip-rule="evenodd" d="M33.85 3.85V20.65C33.85 21.6052 33.4708 22.5208 32.7952 23.1952C32.1208 23.8708 31.2052 24.25 30.25 24.25H3.85C2.8948 24.25 1.9792 23.8708 1.3048 23.1952C0.629197 22.5208 0.25 21.6052 0.25 20.65V3.85C0.25 2.8948 0.629197 1.9792 1.3048 1.3048C1.9792 0.629202 2.8948 0.25 3.85 0.25H30.25C31.2052 0.25 32.1208 0.629202 32.7952 1.3048C33.4708 1.9792 33.85 2.8948 33.85 3.85ZM30.85 2.8108C30.6688 2.7064 30.4624 2.65 30.25 2.65H3.85C3.6376 2.65 3.4312 2.7064 3.25 2.8108L3.2548 2.8132L16.4452 10.5076C16.8184 10.726 17.2816 10.726 17.6548 10.5076L30.8452 2.8132L30.85 2.8108ZM2.65 5.2396V20.65C2.65 20.968 2.776 21.274 3.0016 21.4984C3.226 21.724 3.532 21.85 3.85 21.85H30.25C30.568 21.85 30.874 21.724 31.0984 21.4984C31.324 21.274 31.45 20.968 31.45 20.65V5.2396L18.8644 12.5812C17.7436 13.2352 16.3564 13.2352 15.2356 12.5812L2.65 5.2396Z" fill="black" stroke="black" stroke-width="0.5"/>
</svg>
