<svg width="18" height="18" viewBox="0 0 18 18" fill="none" xmlns="http://www.w3.org/2000/svg">
<g clip-path="url(#clip0_9195_3476)">
<path d="M13.6148 4.62898C13.6534 4.62767 13.692 4.62635 13.7318 4.625C13.9725 4.65495 14.1382 4.805 14.3024 4.97338C14.3306 5.00162 14.3306 5.00162 14.3593 5.03043C14.4208 5.09216 14.4819 5.15425 14.543 5.21634C14.5861 5.25971 14.6292 5.30306 14.6723 5.34639C14.7856 5.46021 14.8985 5.57434 15.0113 5.68854C15.1917 5.871 15.3725 6.05301 15.5534 6.23499C15.6161 6.29819 15.6787 6.36154 15.7412 6.4249C15.9157 6.60115 16.0907 6.7741 16.2795 6.93507C16.4262 7.06404 16.563 7.20376 16.7014 7.34151C16.7506 7.39044 16.7506 7.39044 16.8009 7.44036C16.8698 7.50896 16.9387 7.57764 17.0076 7.64636C17.0953 7.73395 17.1834 7.8212 17.2716 7.90838C17.3564 7.99239 17.4409 8.07676 17.5254 8.16109C17.5726 8.20762 17.5726 8.20762 17.6207 8.2551C17.8443 8.4795 18.0202 8.66228 18.0225 8.99495C18.0237 9.03474 18.0249 9.07453 18.0261 9.11552C17.9589 9.45694 17.6634 9.70282 17.4251 9.93785C17.3898 9.97305 17.3545 10.0083 17.3193 10.0435C17.2457 10.1169 17.172 10.1901 17.0982 10.2631C17.0043 10.3561 16.9106 10.4493 16.8171 10.5426C16.7269 10.6327 16.6366 10.7225 16.5462 10.8124C16.5294 10.8291 16.5125 10.8459 16.4952 10.8632C16.1956 11.1613 16.1956 11.1613 16.0347 11.2987C15.8568 11.4517 15.6939 11.6196 15.5293 11.7865C15.47 11.8466 15.4105 11.9066 15.351 11.9665C15.1819 12.1367 15.0131 12.307 14.8446 12.4778C14.741 12.5827 14.6371 12.6873 14.5331 12.7918C14.4937 12.8315 14.4545 12.8712 14.4153 12.9111C14.3605 12.9667 14.3055 13.0221 14.2503 13.0774C14.2192 13.1089 14.188 13.1404 14.1559 13.1728C13.9479 13.353 13.7721 13.3779 13.5051 13.3709C13.3042 13.3486 13.1843 13.2645 13.0501 13.1148C12.9064 12.9137 12.8623 12.7256 12.9029 12.4798C12.9879 12.2585 13.1177 12.1046 13.2854 11.9407C13.3214 11.9047 13.3214 11.9047 13.3582 11.8679C13.437 11.7892 13.5163 11.711 13.5956 11.6328C13.6506 11.578 13.7055 11.5233 13.7605 11.4684C13.9047 11.3248 14.0493 11.1816 14.194 11.0385C14.3417 10.8921 14.4891 10.7454 14.6365 10.5987C14.9254 10.3113 15.2148 10.0243 15.5044 9.73763C15.4727 9.73763 15.441 9.73764 15.4083 9.73764C13.5289 9.73795 11.6494 9.73717 9.76994 9.73496C9.54433 9.7347 9.31871 9.73444 9.0931 9.73419C9.04818 9.73414 9.00327 9.73409 8.95699 9.73404C8.22949 9.73326 7.50199 9.73321 6.77449 9.73345C6.02814 9.73367 5.28179 9.73309 4.53544 9.73177C4.07481 9.73099 3.61419 9.73082 3.15357 9.73145C2.8378 9.73182 2.52203 9.73142 2.20626 9.73041C2.02402 9.72985 1.84178 9.72963 1.65954 9.73033C1.49265 9.73097 1.32579 9.73063 1.1589 9.72952C1.09856 9.72929 1.03823 9.72942 0.977896 9.72993C0.654703 9.73251 0.386309 9.73197 0.141155 9.49153C-0.0200216 9.30284 -0.0250042 9.11918 -0.0174602 8.87465C0.00953028 8.69251 0.0771027 8.56253 0.211467 8.43684C0.390488 8.31847 0.503552 8.27862 0.722835 8.27837C0.748524 8.27814 0.774213 8.27792 0.80068 8.27769C0.886596 8.27712 0.972476 8.27755 1.05839 8.27797C1.12067 8.27777 1.18295 8.2775 1.24523 8.27717C1.41623 8.27646 1.58723 8.27662 1.75823 8.27692C1.94269 8.2771 2.12714 8.27646 2.31159 8.27593C2.63113 8.27511 2.95066 8.2748 3.2702 8.27484C3.7322 8.2749 4.19419 8.27418 4.65619 8.27328C5.40574 8.27184 6.15529 8.27102 6.90485 8.27059C7.63298 8.27017 8.36111 8.26946 9.08924 8.26836C9.13412 8.26829 9.179 8.26822 9.22524 8.26815C9.45039 8.26781 9.67554 8.26746 9.90069 8.26711C11.7686 8.2642 13.6365 8.2623 15.5044 8.26106C15.4734 8.23034 15.4424 8.19961 15.4104 8.16796C15.1177 7.87816 14.8255 7.588 14.5336 7.29746C14.3835 7.14811 14.2333 6.9989 14.0827 6.84998C13.9375 6.70622 13.7925 6.56213 13.6478 6.41779C13.5926 6.36282 13.5372 6.30797 13.4818 6.25325C13.404 6.17651 13.3267 6.09933 13.2494 6.02204C13.2265 5.99958 13.2035 5.97713 13.1799 5.95399C13.0057 5.77819 12.8879 5.60275 12.8875 5.34529C12.8952 5.13363 12.9569 4.97641 13.1039 4.82303C13.2701 4.67483 13.3897 4.63395 13.6148 4.62898Z" fill="black"/>
</g>
<defs>
<clipPath id="clip0_9195_3476">
<rect width="18" height="18" fill="white"/>
</clipPath>
</defs>
</svg>
