<svg width="30" height="34" viewBox="0 0 30 34" fill="none" xmlns="http://www.w3.org/2000/svg">
<path d="M14.8036 20.8298C15.9962 20.8298 17.1621 20.4762 18.1538 19.8136C19.1454 19.151 19.9183 18.2092 20.3747 17.1073C20.8311 16.0055 20.9505 14.793 20.7179 13.6233C20.4852 12.4535 19.9109 11.3791 19.0675 10.5357C18.2242 9.69239 17.1497 9.11808 15.98 8.8854C14.8103 8.65273 13.5978 8.77214 12.4959 9.22855C11.3941 9.68496 10.4523 10.4579 9.7897 11.4495C9.1271 12.4412 8.77344 13.607 8.77344 14.7997C8.77344 16.399 9.40875 17.9328 10.5396 19.0636C11.6705 20.1945 13.2043 20.8298 14.8036 20.8298ZM14.8036 12.0587C15.3457 12.0587 15.8756 12.2195 16.3264 12.5206C16.7771 12.8218 17.1285 13.2499 17.3359 13.7508C17.5434 14.2516 17.5977 14.8027 17.4919 15.3344C17.3861 15.8661 17.1251 16.3545 16.7418 16.7378C16.3584 17.1212 15.87 17.3822 15.3383 17.488C14.8066 17.5938 14.2555 17.5395 13.7547 17.332C13.2538 17.1246 12.8257 16.7732 12.5245 16.3225C12.2234 15.8717 12.0626 15.3418 12.0626 14.7997C12.0626 14.0727 12.3514 13.3756 12.8654 12.8615C13.3795 12.3475 14.0766 12.0587 14.8036 12.0587Z" fill="black"/>
<path d="M10.7008 32.5957C11.878 33.5061 13.3241 34 14.8122 34C16.3004 34 17.7465 33.5061 18.9237 32.5957C22.9146 29.482 29.6026 23.0242 29.6026 14.7629C29.5924 10.844 28.0285 7.0891 25.2538 4.32162C22.4791 1.55413 18.7202 -1.31705e-05 14.8013 0C10.8757 0 7.11097 1.55942 4.33519 4.33519C1.55942 7.11097 0 10.8757 0 14.8013C0 23.0681 6.70443 29.4984 10.7008 32.5957ZM14.8013 3.28917C17.8488 3.28916 20.772 4.49752 22.93 6.64935C25.088 8.80118 26.3047 11.7209 26.3134 14.7684C26.3134 21.6428 20.4203 27.2508 16.9009 29.9863C16.2989 30.4493 15.5607 30.6999 14.8013 30.6989C14.0521 30.7058 13.3217 30.4649 12.7236 30.0137C9.19872 27.2672 3.28917 21.6647 3.28917 14.8013C3.28917 11.7481 4.50205 8.81993 6.66099 6.66099C8.81993 4.50205 11.7481 3.28917 14.8013 3.28917Z" fill="black"/>
</svg>
