<svg width="21" height="21" viewBox="0 0 21 21" fill="none" xmlns="http://www.w3.org/2000/svg">
<path d="M15.6859 0.5C17.094 0.5 18.4485 1.05944 19.4449 2.06328C20.4424 3.065 21 4.41611 21 5.83056V14.1694C21 17.1144 18.6165 19.5 15.6859 19.5H5.313C2.38245 19.5 0 17.1144 0 14.1694V5.83056C0 2.88556 2.37195 0.5 5.313 0.5H15.6859ZM16.8735 5.98889C16.653 5.97728 16.443 6.05222 16.2844 6.2L11.55 10C10.941 10.5077 10.0684 10.5077 9.45 10L4.725 6.2C4.39845 5.95722 3.94695 5.98889 3.675 6.27389C3.3915 6.55889 3.36 7.01278 3.60045 7.32944L3.738 7.46667L8.5155 11.2139C9.1035 11.6783 9.81645 11.9317 10.563 11.9317C11.3075 11.9317 12.033 11.6783 12.6199 11.2139L17.3565 7.40333L17.4405 7.31889C17.6915 7.01278 17.6915 6.56944 17.4289 6.26333C17.283 6.10606 17.0824 6.01 16.8735 5.98889Z" fill="#1DB0BE"/>
</svg>
