<svg width="50" height="50" viewBox="0 0 50 50" fill="none" xmlns="http://www.w3.org/2000/svg">
<path d="M44.406 28.4907L43.2832 27.8457C43.4259 26.9071 43.4995 25.9535 43.4995 25C43.4995 24.0464 43.4259 23.0928 43.2832 22.1543L44.4081 21.5093C46.8809 20.0907 47.7334 16.9408 46.3055 14.4871L44.579 11.5171C43.8867 10.3278 42.7661 9.47492 41.4269 9.12137C40.0877 8.76352 38.6901 8.9478 37.4937 9.63565L36.3709 10.2807C34.876 9.0935 33.1928 8.12709 31.4123 7.43283V6.14282C31.4123 3.30782 29.0866 1 26.2264 1H22.7714C19.9113 1 17.5856 3.30782 17.5856 6.14282V7.43283C15.8072 8.12709 14.124 9.09136 12.6269 10.2807L11.502 9.63565C10.3034 8.94994 8.90582 8.76568 7.56878 9.12137C6.23175 9.47708 5.1111 10.3278 4.41879 11.5171L2.69234 14.4871C1.26448 16.9428 2.11684 20.0929 4.59187 21.5115L5.71468 22.1543C5.57189 23.0929 5.49833 24.0465 5.49833 25C5.49833 25.9536 5.57188 26.9072 5.71468 27.8457L4.58971 28.4907C2.1169 29.9093 1.26448 33.0592 2.69234 35.5129L4.42095 38.4829C5.11326 39.6722 6.23175 40.5229 7.57094 40.8786C8.90582 41.2322 10.3034 41.0522 11.5063 40.3643L12.6291 39.7193C14.124 40.9065 15.8072 41.8729 17.5877 42.5672V43.8572C17.5877 46.6922 19.9134 49 22.7735 49H26.2286C29.0887 49 31.4144 46.6922 31.4144 43.8572V42.5672C33.1928 41.8729 34.8759 40.9086 36.3731 39.7193L37.4959 40.3643C38.6944 41.0501 40.0898 41.2343 41.429 40.8786C42.7661 40.5229 43.8889 39.6722 44.5812 38.4829L46.3076 35.5129C47.7355 33.0572 46.8831 29.9071 44.4103 28.4885L44.406 28.4907ZM43.3026 33.8028L41.5761 36.7728C41.3468 37.1692 40.9747 37.4521 40.5269 37.5699C40.0855 37.6878 39.6226 37.6278 39.2245 37.4006L37.0372 36.1449C36.3795 35.7656 35.5531 35.8577 34.9992 36.3677C33.3312 37.8891 31.3105 39.0484 29.1556 39.7234C28.4352 39.9484 27.9462 40.6106 27.9462 41.3584V43.857C27.9462 44.802 27.1717 45.5713 26.222 45.5713H22.7669C21.8172 45.5713 21.0426 44.802 21.0426 43.857V41.3584C21.0426 40.6106 20.5537 39.9485 19.8332 39.7234C17.6785 39.0506 15.6577 37.8891 13.9896 36.3677C13.6629 36.0677 13.241 35.9135 12.817 35.9135C12.5206 35.9135 12.2221 35.9885 11.9516 36.1449L9.76655 37.3985C9.37064 37.6278 8.90549 37.6856 8.46197 37.5678C8.0163 37.4499 7.64416 37.167 7.41487 36.7728L5.68626 33.8028C5.2103 32.9842 5.49371 31.9321 6.31582 31.4607L8.50091 30.2071C9.15212 29.8321 9.48309 29.0821 9.32087 28.3535C9.07424 27.2564 8.95309 26.1293 8.95309 25C8.95309 23.8728 9.07857 22.7436 9.32087 21.6464C9.48313 20.9179 9.15212 20.1679 8.50091 19.7929L6.31582 18.5415C5.48937 18.0679 5.20597 17.0158 5.6841 16.1972L7.41055 13.2272C7.63987 12.8308 8.01197 12.5479 8.45765 12.4301C8.90116 12.3101 9.36413 12.3701 9.76007 12.5994L11.9473 13.8551C12.605 14.2344 13.4315 14.1423 13.9853 13.6323C15.6533 12.1109 17.674 10.9516 19.8289 10.2766C20.5494 10.0516 21.0383 9.38943 21.0383 8.64157V6.14301C21.0383 5.19799 21.8128 4.42874 22.7626 4.42874H26.2176C27.1674 4.42874 27.9419 5.19799 27.9419 6.14301V8.64157C27.9419 9.38943 28.4309 10.0515 29.1513 10.2766C31.3061 10.9494 33.3268 12.1109 34.9949 13.6323C35.5509 14.1423 36.3752 14.2323 37.0329 13.8551L39.218 12.6015C39.6161 12.3744 40.079 12.3144 40.5204 12.4301C40.9661 12.548 41.3382 12.8308 41.5675 13.2272L43.294 16.1972C43.7699 17.0158 43.4865 18.0679 42.6622 18.5415L40.4772 19.7929C39.8238 20.1679 39.4906 20.92 39.655 21.6486C39.9017 22.7414 40.025 23.8686 40.025 25C40.025 26.1314 39.8995 27.2585 39.655 28.3514C39.4906 29.0821 39.8238 29.8321 40.4772 30.2071L42.6601 31.4585C43.4865 31.932 43.7699 32.9841 43.2918 33.8027L43.3026 33.8028ZM24.4957 13C17.8152 13 12.3803 18.3828 12.3803 24.9999C12.3803 31.617 17.8149 36.9998 24.4957 36.9998C31.1764 36.9998 36.611 31.617 36.611 24.9999C36.611 18.3828 31.1764 13 24.4957 13ZM24.4957 33.5713C19.7231 33.5713 15.8418 29.727 15.8418 24.9999C15.8418 20.2728 19.7231 16.4286 24.4957 16.4286C29.2683 16.4286 33.1495 20.2728 33.1495 24.9999C33.1495 29.727 29.2683 33.5713 24.4957 33.5713ZM30.0469 21.2159C30.7241 21.8866 30.7241 22.9687 30.0469 23.6395L24.8546 28.7823C24.5171 29.1166 24.0735 29.2837 23.6301 29.2837C23.1866 29.2837 22.743 29.1166 22.4056 28.7823L19.8073 26.2109C19.1301 25.5401 19.1301 24.4559 19.8073 23.7852C20.4845 23.1144 21.5791 23.1166 22.2563 23.7852L23.6301 25.1438L27.5979 21.2138C28.2751 20.543 29.3676 20.543 30.0448 21.2138L30.0469 21.2159Z" fill="black"/>
</svg>
