<svg width="50" height="50" viewBox="0 0 50 50" fill="none" xmlns="http://www.w3.org/2000/svg">
<path fill-rule="evenodd" clip-rule="evenodd" d="M27.6595 3.64315L25.2434 2.133C25.1609 2.08133 25.0773 2.05577 25.0004 2.05577V2.05966C24.9196 2.05966 24.8361 2.0841 24.7575 2.133L22.3413 3.64315C21.856 3.94652 21.3076 4.07153 20.7387 4.00763L18.048 3.70427C17.8538 3.6826 17.7038 3.75539 17.6031 3.92318L16.2439 6.18175C15.9346 6.69569 15.4614 7.07517 14.8914 7.2663L12.4183 8.09583C12.2373 8.15639 12.1266 8.29252 12.1067 8.4831L11.8311 11.11C11.768 11.7129 11.519 12.229 11.0873 12.6513L9.15042 14.5487C9.01152 14.6848 8.97554 14.8421 9.03808 15.0271L9.95341 17.7313C10.1377 18.2763 10.1377 18.8042 9.95341 19.3492L9.03808 22.0534C8.97554 22.2384 9.01096 22.3956 9.15042 22.5318L11.0873 24.4292C11.519 24.852 11.768 25.3676 11.8311 25.9705L12.1067 28.5974C12.1266 28.788 12.2373 28.9235 12.4183 28.9846L14.8909 29.8142C15.4609 30.0053 15.934 30.3853 16.2434 30.8987L17.6025 33.1573C17.7033 33.3245 17.8532 33.3979 18.0475 33.3762L20.7381 33.0728C21.3065 33.009 21.8554 33.134 22.3408 33.4373L24.7569 34.9475C24.8394 34.9992 24.9229 35.0247 24.9999 35.0247V35.0208C25.0807 35.0208 25.1642 34.9964 25.2428 34.9475L27.659 33.4373C28.1443 33.134 28.6927 33.009 29.2616 33.0728L31.9523 33.3762C32.1465 33.3979 32.2965 33.3251 32.3972 33.1573L33.7564 30.8987C34.0657 30.3848 34.5389 30.0053 35.1089 29.8142L37.5815 28.9846C37.7624 28.9241 37.8731 28.788 37.893 28.5974L38.1686 25.9705C38.2317 25.3671 38.4808 24.8514 38.9124 24.4292L40.8493 22.5318C40.9882 22.3956 41.0242 22.2384 40.9617 22.0534L40.0463 19.3492C39.862 18.8042 39.862 18.2763 40.0463 17.7313L40.9617 15.0271C41.0242 14.8421 40.9888 14.6848 40.8493 14.5487L38.9124 12.6513C38.4808 12.2285 38.2317 11.7129 38.1686 11.11L37.893 8.4831C37.8731 8.29252 37.7624 8.15695 37.5815 8.09583L35.1089 7.2663C34.5389 7.07517 34.0657 6.69513 33.7564 6.18175L32.3972 3.92318C32.2965 3.75594 32.1465 3.6826 31.9523 3.70427L29.2616 4.00763C28.6933 4.07153 28.1449 3.94652 27.6595 3.64315ZM31.3341 12.1813C34.8322 15.6933 34.8322 21.3878 31.3341 24.8992C27.8361 28.4113 22.1642 28.4113 18.6667 24.8992C15.1687 21.3872 15.1687 15.6927 18.6667 12.1813C22.1648 8.66923 27.8366 8.66923 31.3341 12.1813ZM25.0004 7.48744C31.0807 7.48744 36.0098 12.4363 36.0098 18.5408C36.0098 24.6453 31.0807 29.5942 25.0004 29.5942C18.9202 29.5942 13.991 24.6453 13.991 18.5408C13.991 12.4363 18.9202 7.48744 25.0004 7.48744ZM25.758 16.7984C25.9113 17.1473 26.2351 17.3673 26.5876 17.404V17.4062L28.4348 17.6001L27.0513 18.8492C26.7613 19.1109 26.6551 19.5009 26.7409 19.8565L27.1227 21.6545L25.5134 20.7205C25.1803 20.5271 24.784 20.5427 24.4752 20.7277L22.8776 21.655L23.2655 19.827C23.3441 19.4548 23.2113 19.087 22.949 18.8492L21.5655 17.6001L23.4127 17.4062C23.8161 17.3646 24.1404 17.0934 24.2705 16.7351L24.9999 15.0882L25.7575 16.799L25.758 16.7984ZM25.9346 12.1501L27.3839 15.4238L30.9368 15.7966C31.8355 15.89 32.1609 17.0006 31.5173 17.5824V17.5835L28.8626 19.9815L29.6069 23.4891C29.789 24.3497 28.8632 25.0576 28.0624 24.5742L25.001 22.7973L21.9097 24.5914C21.1393 25.0387 20.2129 24.3514 20.3956 23.4891L21.1393 19.9815L18.4841 17.5835C17.8355 16.9973 18.1587 15.8694 19.1106 15.7922L22.6175 15.4238L24.0668 12.1501C24.4321 11.3228 25.5854 11.3573 25.9346 12.1501ZM13.0419 31.3593C13.2417 31.4266 14.2849 31.7522 14.3889 31.8355C14.4205 31.8605 14.4537 31.9027 14.4891 31.9616L15.8483 34.2202C16.3601 35.0703 17.2899 35.5314 18.2727 35.4209L20.9634 35.1175C21.1886 35.0919 21.3037 35.212 21.5472 35.3642L15.0154 46.7231L12.8444 41.8632C12.68 41.417 12.2229 41.1309 11.7348 41.2026L6.97001 41.9171L13.0419 31.3593ZM28.4537 35.3642C28.6971 35.212 28.8128 35.0919 29.0375 35.1175L31.7281 35.4209C32.711 35.5314 33.6412 35.0703 34.1526 34.2202L35.5117 31.9616C35.5472 31.9027 35.5804 31.8611 35.6119 31.8355C35.716 31.7522 36.7591 31.426 36.9589 31.3593L43.0308 41.9176L38.266 41.2026C37.7785 41.1309 37.3208 41.417 37.1565 41.8632L34.9855 46.7226L28.4537 35.3642ZM38.8842 30.6048L45.862 42.7388C46.2887 43.4828 45.6645 44.3879 44.8283 44.2646V44.2679L38.7326 43.3534L36.0342 49.3929C35.6728 50.2035 34.5931 50.1824 34.1924 49.4473L26.7176 36.4493C26.1388 36.811 25.7392 37.0822 24.9999 37.0822V37.0783C24.2539 37.0783 23.8604 36.811 23.2821 36.4493L15.8073 49.4473C15.4066 50.1824 14.3269 50.2041 13.9656 49.3929L11.2672 43.3534L5.17201 44.2679V44.2646C4.33526 44.3879 3.71103 43.4823 4.13825 42.7388L11.1161 30.6048C10.5245 30.1909 10.1482 29.5442 10.0707 28.8074L9.79513 26.1805C9.78296 26.0643 9.74422 25.9849 9.66066 25.9027L7.72375 24.0052C7.02646 23.3224 6.78518 22.3201 7.09896 21.3944L8.01428 18.6903C8.04915 18.5875 8.04915 18.4947 8.01428 18.3919L7.09896 15.6877C6.78573 14.7621 7.02646 13.7597 7.72375 13.0769L9.66066 11.1795C9.74477 11.0973 9.78296 11.0178 9.79513 10.9017L10.0707 8.27474C10.1753 7.27797 10.8222 6.46678 11.7691 6.14952L14.2423 5.31999C14.3048 5.29888 14.3535 5.27443 14.3889 5.2461C14.4205 5.22109 14.4537 5.17887 14.4891 5.11997L15.8483 2.86141C16.3601 2.01132 17.2899 1.55016 18.2727 1.66073L20.9634 1.96409C21.0862 1.97798 21.1548 1.96298 21.2594 1.89742L23.6756 0.387262C24.089 0.128902 24.5433 0 25.0004 0V0.00388927C25.4614 0.00388927 25.9163 0.13168 26.3253 0.387262L28.7414 1.89742C28.846 1.96298 28.9146 1.97798 29.0375 1.96409L31.7281 1.66073C32.711 1.55016 33.6412 2.01076 34.1526 2.86141L35.5117 5.11997C35.5809 5.23498 35.6324 5.27721 35.758 5.31944L38.2306 6.14897C39.1775 6.46622 39.8244 7.27797 39.929 8.27419L40.2046 10.9011C40.2168 11.0172 40.255 11.0967 40.3391 11.1789L42.276 13.0763C42.9733 13.7592 43.2146 14.7615 42.9008 15.6872L41.9855 18.3913C41.9506 18.4941 41.9506 18.5869 41.9855 18.6897L42.9008 21.3939C43.214 22.3195 42.9733 23.3218 42.276 24.0047L40.3391 25.9021C40.255 25.9843 40.2168 26.0638 40.2046 26.1799L39.929 28.8069C39.8515 29.5442 39.4758 30.1903 38.8836 30.6043L38.8842 30.6048Z" fill="#181818"/>
</svg>
