<svg width="18" height="18" viewBox="0 0 18 18" fill="none" xmlns="http://www.w3.org/2000/svg">
<g clip-path="url(#clip0_9043_4309)">
<path d="M8.23246 -0.0153946C8.26514 -0.0152876 8.29783 -0.0151807 8.33151 -0.0150705C10.5902 -0.00420737 12.6592 0.930399 14.2431 2.5262C14.4183 2.70607 14.578 2.89536 14.732 3.09374C14.7728 3.14363 14.7728 3.14363 14.8145 3.19454C15.2103 3.68751 15.5207 4.24416 15.7867 4.81639C15.8049 4.85541 15.8232 4.89443 15.842 4.93463C16.1835 5.69741 16.3996 6.51701 16.4898 7.34764C16.4937 7.38281 16.4976 7.41798 16.5016 7.45421C16.5343 7.80473 16.5315 8.15616 16.5249 8.5078C16.5245 8.53281 16.5241 8.55782 16.5236 8.58359C16.5071 9.28384 16.3751 9.9829 16.1734 10.6523C16.1657 10.6783 16.158 10.7042 16.1501 10.7309C15.8419 11.7541 15.3107 12.6581 14.6617 13.5C14.8206 13.6906 14.9892 13.8671 15.1654 14.0418C15.194 14.0703 15.2226 14.0988 15.2521 14.1281C15.3139 14.1896 15.3757 14.2511 15.4375 14.3126C15.5354 14.4099 15.6332 14.5073 15.731 14.6048C16.0088 14.8817 16.2868 15.1585 16.565 15.4351C16.7354 15.6046 16.9057 15.7743 17.0759 15.944C17.1406 16.0086 17.2055 16.0731 17.2704 16.1375C17.3611 16.2275 17.4516 16.3178 17.542 16.4081C17.5688 16.4345 17.5956 16.461 17.6232 16.4883C17.8521 16.7176 18.005 16.8962 18.0125 17.2331C18.01 17.4379 17.993 17.5928 17.8609 17.7539C17.6711 17.928 17.5187 18.0052 17.2588 18.0132C17.221 18.0149 17.1832 18.0166 17.1443 18.0184C16.8185 17.9712 16.5963 17.7397 16.3743 17.5138C16.3434 17.4829 16.3125 17.452 16.2807 17.4202C16.1968 17.3362 16.1132 17.2519 16.0297 17.1675C15.9421 17.079 15.8542 16.9909 15.7662 16.9028C15.6001 16.7363 15.4343 16.5694 15.2687 16.4023C15.08 16.212 14.8909 16.0221 14.7017 15.8323C14.3129 15.442 13.9246 15.0512 13.5367 14.6601C13.4366 14.7197 13.3394 14.7786 13.2469 14.8494C12.9444 15.0778 12.6362 15.2823 12.3062 15.4687C12.2837 15.4817 12.2611 15.4946 12.2379 15.508C10.3369 16.5936 8.02666 16.7798 5.93412 16.2111C4.96029 15.9272 4.02904 15.4707 3.23587 14.8359C3.20701 14.8138 3.17814 14.7916 3.1484 14.7688C1.60422 13.5694 0.527547 11.8258 0.135532 9.91185C0.130082 9.88534 0.124633 9.85882 0.119018 9.83151C0.0178709 9.30974 -0.0128931 8.79849 -0.0116848 8.2683C-0.0116539 8.23514 -0.0116231 8.20197 -0.0115914 8.16781C-0.00990118 7.61406 0.0222609 7.08157 0.142124 6.53905C0.154572 6.48269 0.154572 6.48269 0.167272 6.42519C0.397803 5.42176 0.798373 4.42161 1.40775 3.58592C1.42357 3.56405 1.43938 3.54218 1.45568 3.51965C1.65059 3.25099 1.84942 2.99035 2.07599 2.74725C2.13924 2.67917 2.19866 2.60923 2.25809 2.53783C3.10081 1.57748 4.26408 0.895435 5.45072 0.457018C5.4852 0.444051 5.4852 0.444051 5.52038 0.430822C5.7927 0.329443 6.06902 0.25515 6.3516 0.188951C6.38025 0.182122 6.40891 0.175293 6.43844 0.168257C7.03297 0.0350793 7.62422 -0.0196609 8.23246 -0.0153946ZM5.48587 2.10936C5.44866 2.12608 5.44866 2.12608 5.4107 2.14313C4.7451 2.44731 4.08725 2.87166 3.58744 3.41014C3.41166 3.58592 3.41166 3.58592 3.34533 3.64731C2.1677 4.76574 1.57004 6.47789 1.50306 8.07247C1.46786 9.51605 1.91466 10.9506 2.74369 12.1289C2.75785 12.1491 2.77202 12.1693 2.78662 12.1901C3.42288 13.0831 4.26739 13.7765 5.23978 14.2734C5.26247 14.2851 5.28516 14.2968 5.30853 14.3088C6.83499 15.085 8.65246 15.1885 10.2778 14.6799C11.2969 14.3467 12.1879 13.7937 12.9602 13.0547C13.0021 13.0147 13.0444 12.9752 13.0869 12.9358C14.2487 11.8284 14.9405 10.1223 14.9899 8.53128C14.9909 8.44363 14.9914 8.35596 14.9912 8.2683C14.9912 8.24504 14.9912 8.22178 14.9912 8.19782C14.9861 6.82551 14.5506 5.47448 13.7476 4.35936C13.7221 4.32383 13.6967 4.2883 13.6704 4.2517C13.502 4.02496 13.3206 3.81441 13.128 3.6079C13.1065 3.58491 13.0851 3.56192 13.0631 3.53824C11.8627 2.2726 10.1551 1.57813 8.42636 1.50154C7.41288 1.47529 6.40771 1.69357 5.48587 2.10936Z" fill="black"/>
<path d="M9.60794 4.15721C10.1035 4.55016 10.4301 5.06515 10.5132 5.6953C10.5745 6.31764 10.4405 6.91123 10.0489 7.41164C9.97216 7.49924 9.89287 7.58217 9.81009 7.66405C9.78283 7.69308 9.78283 7.69308 9.75502 7.72269C9.49598 7.97497 9.10154 8.13821 8.7554 8.22655C8.79062 8.23661 8.82583 8.24667 8.86211 8.25704C8.89597 8.26674 8.89597 8.26674 8.93052 8.27664C8.99654 8.29545 9.06267 8.31389 9.1288 8.33229C9.64161 8.48241 10.0948 8.69861 10.5132 9.03514C10.5371 9.05332 10.5611 9.07149 10.5857 9.09021C11.2259 9.6052 11.6062 10.4242 11.7437 11.2148C11.7553 11.4005 11.7669 11.5861 11.7788 11.7773C9.45853 11.7773 7.13822 11.7773 4.74759 11.7773C4.74759 11.2006 4.74759 11.2006 4.80252 10.9731C4.80865 10.9468 4.81477 10.9205 4.82108 10.8934C5.05266 9.96396 5.66472 9.17641 6.47919 8.68425C6.86721 8.45773 7.30662 8.34832 7.73587 8.22655C7.71031 8.21925 7.68475 8.21196 7.65842 8.20444C7.02545 8.01049 6.55588 7.63676 6.22415 7.06639C5.95081 6.49703 5.8916 5.87875 6.08353 5.27342C6.32458 4.66499 6.69739 4.21836 7.29203 3.9243C8.05822 3.59515 8.92666 3.66717 9.60794 4.15721Z" fill="black"/>
</g>
<defs>
<clipPath id="clip0_9043_4309">
<rect width="18" height="18" fill="white"/>
</clipPath>
</defs>
</svg>
