<svg width="77" height="85" viewBox="0 0 77 85" fill="none" xmlns="http://www.w3.org/2000/svg">
<g clip-path="url(#clip0_9862_6498)">
<path d="M35.0407 1.07478C37.1343 -0.126377 39.8612 -0.131803 41.9529 1.07478C52.4765 7.03502 63.0033 12.9859 73.525 18.9498C75.5041 20.0672 76.8278 22.2747 76.8076 24.5604V60.4195C76.8224 62.7998 75.3678 65.0602 73.28 66.1522C62.791 72.0796 52.3075 78.0142 41.8203 83.9416C39.6834 85.1663 36.9018 85.072 34.8317 83.7469C31.6871 81.9197 28.5371 80.1016 25.3922 78.2762C24.7496 77.8922 24.0252 77.5865 23.5714 76.962C23.9725 76.42 24.6898 76.3525 25.2725 76.1159C26.5852 75.6975 27.7907 75.026 28.9966 74.3743C29.3015 74.1651 29.6738 74.2453 29.9661 74.4325C32.6551 75.9779 35.3203 77.5681 38.0184 79.0987C38.5939 79.4318 39.1767 78.9896 39.6687 78.7147C49.9616 72.8838 60.2671 67.0749 70.5582 61.2421C70.9395 61.0583 71.1503 60.6525 71.1193 60.2339C71.1265 48.4047 71.1211 36.5734 71.1229 24.7443C71.1665 24.2692 70.8923 23.8325 70.4638 23.6381C60.0112 17.7378 49.564 11.8285 39.1133 5.92671C38.9322 5.80194 38.7177 5.73499 38.498 5.73467C38.2783 5.73434 38.0636 5.80066 37.8821 5.9249C27.4314 11.8285 16.986 17.7432 6.53526 23.6432C6.10824 23.8379 5.82166 24.2674 5.87248 24.7443C5.87429 36.5734 5.87248 48.4047 5.87248 60.2357C5.85436 60.44 5.89912 60.6449 6.00074 60.8229C6.10236 61.0009 6.25595 61.1434 6.44084 61.2313C9.22967 62.8164 12.0221 64.3904 14.8128 65.9702C16.3849 66.8184 18.3152 67.3223 20.0473 66.6725C21.5758 66.123 22.6473 64.5595 22.6181 62.9328C22.6326 51.1726 22.6109 39.4107 22.629 27.6523C22.5908 27.1303 23.0848 26.699 23.5912 26.7481C24.9312 26.739 26.273 26.73 27.613 26.7517C28.1723 26.739 28.5573 27.3012 28.4881 27.8272C28.4827 39.6618 28.5025 51.4967 28.4791 63.3312C28.4827 66.4853 27.1899 69.9172 24.2793 71.4605C20.6935 73.3224 16.2616 72.9275 12.7192 71.1422C9.65248 69.608 6.72591 67.7974 3.71365 66.1537C1.62037 65.0677 0.173024 62.7983 0.187759 60.4198V24.5604C0.165807 22.2274 1.54218 19.9797 3.58284 18.8787C14.07 12.9464 24.5553 7.0097 35.0407 1.07478Z" fill="#8CC84B"/>
<path d="M44.1905 25.9138C48.7644 25.6187 53.661 25.7389 57.7768 27.9975C60.9635 29.7282 62.7302 33.3606 62.7865 36.9092C62.6975 37.3879 62.1983 37.6519 61.7424 37.619C60.4153 37.6172 59.088 37.6371 57.7609 37.61C57.198 37.6317 56.8708 37.1115 56.8001 36.6126C56.4188 34.9147 55.495 33.2331 53.9006 32.4142C51.4531 31.1859 48.6152 31.2477 45.9464 31.2733C43.9981 31.377 41.903 31.5461 40.2524 32.6945C38.9851 33.5644 38.6002 35.3204 39.0525 36.7347C39.4789 37.7502 40.6484 38.0778 41.6053 38.3798C47.1174 39.8248 52.9585 39.681 58.3653 41.5827C60.6039 42.3579 62.7937 43.865 63.5599 46.2143C64.5622 49.3629 64.1228 53.1264 61.8879 55.6541C60.0755 57.7342 57.4358 58.8663 54.8031 59.4812C51.3006 60.264 47.6659 60.2839 44.109 59.9364C40.7645 59.5542 37.284 58.6734 34.702 56.3893C32.4942 54.4677 31.4158 51.4737 31.5229 48.584C31.5484 48.096 32.0332 47.7557 32.4996 47.7958C33.836 47.785 35.1724 47.7814 36.5087 47.7976C37.0425 47.7594 37.4383 48.2217 37.4656 48.726C37.7122 50.3437 38.3187 52.0416 39.7261 53.0007C42.4422 54.7571 45.8502 54.6368 48.9602 54.686C51.5367 54.5714 54.429 54.5368 56.5316 52.8298C57.6409 51.8562 57.9696 50.2274 57.6698 48.8261C57.345 47.643 56.1103 47.0917 55.05 46.7312C49.6085 45.0059 43.7022 45.632 38.3133 43.6809C36.1256 42.9059 34.0101 41.4407 33.1696 39.1879C31.9968 35.9995 32.5342 32.0558 35.0034 29.6134C37.4109 27.1839 40.8863 26.2486 44.1905 25.9138Z" fill="#8CC84B"/>
</g>
<defs>
<clipPath id="clip0_9862_6498">
<rect width="77" height="85" fill="white"/>
</clipPath>
</defs>
</svg>
