<svg width="181" height="62" viewBox="0 0 181 62" fill="none" xmlns="http://www.w3.org/2000/svg">
<path d="M142.972 55.2578C143.366 55.7897 144.241 56.3259 144.712 56.5805C146.032 57.2943 147.426 57.8113 148.895 58.1316C150.044 58.3827 151.187 58.5745 152.381 58.6495C153.757 58.7355 154.95 58.7445 155.959 58.6765C157.098 58.5992 158.304 58.3644 159.578 57.972C160.988 57.537 162.48 56.8325 163.604 55.9867C165.335 54.6841 166.887 52.7546 167.165 50.5661C167.549 47.5328 166.674 44.7706 164.418 42.6937C163.316 41.6782 162.161 40.779 160.955 39.9961C158.755 38.569 156.48 37.2734 154.13 36.1091C152.627 35.3639 151.117 34.6318 149.601 33.9128C144.488 31.488 139.999 27.3404 138.697 21.6399C138.279 19.8113 138.099 17.8573 138.158 15.7781C138.243 12.7584 139.065 9.98202 140.625 7.44886C143.033 3.5349 147.287 1.0927 151.737 0.342868C153.126 0.108617 154.417 -0.00560156 155.61 0.000211114C156.835 0.00660505 158.244 0.144074 159.839 0.41262C166.083 1.465 171.397 5.68762 171.023 12.573C171 13.0218 170.871 13.5775 170.636 14.2401C168.929 19.0791 162.016 19.3154 160.048 14.5653C159.849 14.0846 159.726 13.5385 159.68 12.927C159.597 11.8275 159.653 10.6601 160.061 9.64867C160.744 7.95892 162.021 6.86963 163.893 6.38078C164.134 6.318 164.541 6.26656 165.115 6.22646C165.16 6.22355 165.249 6.19856 165.383 6.15147C165.413 6.14101 165.428 6.11979 165.427 6.08782C165.423 5.79312 164.696 5.20808 164.539 5.08427C162.876 3.76857 160.95 3.03704 158.867 2.61417C158.329 2.50489 157.753 2.4302 157.14 2.39009C155.563 2.28837 154.093 2.31801 152.732 2.47903C151.885 2.579 151.003 2.79465 150.084 3.12598C146.542 4.40157 144.391 7.11492 144.148 10.9138C144.03 12.7448 144.189 14.6917 145.091 16.3266C145.605 17.2589 146.257 18.0913 147.047 18.8237C149.279 20.8927 151.977 22.402 154.701 23.7124C158.561 25.5705 161.562 27.0675 164.989 29.2176C166.673 30.2744 168.187 31.5273 169.531 32.9764C171.226 34.8048 172.349 36.974 172.893 39.4267C173.232 40.9525 173.413 42.4641 173.437 43.9615C173.468 46.0273 173.195 47.9385 172.617 49.6951C171.542 52.9612 169.502 55.7199 166.698 57.6817C164.343 59.3296 161.738 60.3602 158.882 60.7735C156.074 61.1798 153.531 61.0908 150.356 60.7429C148.2 60.5069 146.065 59.9338 143.949 59.0235C141.579 58.0025 139.339 56.2893 138.204 53.9918C137.437 52.4387 137.113 50.782 137.231 49.022C137.358 47.1291 138.276 45.2545 139.89 44.2222C141.049 43.4793 142.357 43.2012 143.813 43.3877C145.54 43.6098 146.854 44.4561 147.755 45.9267C148.423 47.0166 148.655 48.1832 148.646 49.4754C148.633 51.4214 147.973 53.1539 146.273 54.229C145.419 54.7684 144.483 55.0706 143.465 55.1357C143.266 55.1485 143.112 55.1631 143.005 55.1793C142.996 55.1807 142.988 55.1842 142.982 55.1894C142.975 55.1947 142.97 55.2016 142.966 55.2095C142.963 55.2174 142.962 55.226 142.963 55.2344C142.964 55.2429 142.967 55.2509 142.972 55.2578Z" fill="url(#paint0_linear_8881_6962)"/>
<path d="M72.1442 3.74648C71.2957 3.53461 70.3513 3.59477 69.4809 3.57908C69.3091 3.57559 69.146 3.46224 69.0109 3.45788C68.2138 3.43463 67.4179 3.38871 66.6231 3.32012C66.5545 3.31431 66.4537 3.29077 66.3205 3.2495C66.2903 3.2402 66.2752 3.21956 66.2752 3.18759L66.2804 1.52837C66.2804 1.48477 66.3025 1.46239 66.3467 1.46123C66.6566 1.45309 66.9632 1.44902 67.2667 1.44902C74.1448 1.44466 81.0272 1.4063 87.9052 1.46995C87.9401 1.46995 87.9576 1.48739 87.9576 1.52226L87.9558 3.13266C87.9555 3.1756 87.9393 3.21687 87.9102 3.24834C87.8812 3.27981 87.8414 3.2992 87.7988 3.30268C86.0622 3.448 84.3422 3.56338 82.6388 3.64883C82.4469 3.65755 82.2725 3.70725 82.0824 3.7273C82.0475 3.73079 82.0301 3.74997 82.0301 3.78485L82.0318 56.8644C82.0318 56.8735 82.0336 56.8825 82.0373 56.8908C82.0409 56.8992 82.0463 56.9067 82.053 56.9129C82.0597 56.9191 82.0676 56.9239 82.0763 56.927C82.0849 56.93 82.0941 56.9313 82.1033 56.9307C82.4475 56.9098 82.7998 56.9223 83.1603 56.9682C83.6917 57.0356 84.8908 57.0908 86.7576 57.1339C87.007 57.14 87.3506 57.2193 87.6462 57.235C89.6171 57.3419 91.5883 57.3489 93.5598 57.2559C93.9086 57.2391 94.4132 57.1905 95.0737 57.1103C96.5832 56.9272 98.0815 56.5488 99.4149 55.8783C101.211 54.9733 102.525 52.9435 103.176 51.0698C104.051 48.5541 104.719 45.959 105.179 43.2846C105.194 43.1974 105.234 43.1195 105.3 43.0509C105.321 43.0282 105.347 43.0169 105.378 43.0169L106.463 43.0178C106.538 43.0178 106.575 43.0553 106.575 43.1303V59.44C106.575 59.4865 106.557 59.5311 106.524 59.564C106.491 59.5968 106.446 59.6153 106.399 59.6153L66.3467 59.6135C66.299 59.6135 66.2752 59.59 66.2752 59.5429L66.2734 57.8706C66.2735 57.8567 66.2773 57.843 66.2846 57.8312C66.2918 57.8193 66.3021 57.8097 66.3144 57.8035C66.4601 57.7294 66.6031 57.6657 66.7723 57.6683C67.5298 57.6805 68.2842 57.646 69.0353 57.5646C69.5144 57.5128 69.9277 57.4817 70.2754 57.4713C71.028 57.4477 71.5277 57.4329 72.1067 57.3013C72.1649 57.2879 72.1939 57.2513 72.1939 57.1914L72.1957 3.81187C72.1957 3.777 72.1785 3.7552 72.1442 3.74648Z" fill="url(#paint1_linear_8881_6962)"/>
<path d="M115.792 3.75149C114.969 3.53003 113.994 3.59629 113.143 3.58147C112.954 3.57798 112.802 3.46638 112.623 3.4594C111.951 3.43383 111.279 3.40476 110.608 3.37221C110.389 3.36117 110.176 3.32019 109.969 3.24928C109.941 3.23998 109.928 3.22108 109.928 3.1926L109.928 1.50809C109.928 1.46624 109.949 1.44531 109.991 1.44531H131.545C131.579 1.44531 131.597 1.46275 131.598 1.49763V3.19522C131.598 3.20906 131.594 3.22263 131.588 3.23468C131.581 3.24673 131.572 3.25685 131.56 3.2641C131.452 3.33327 131.336 3.36873 131.211 3.37047C129.979 3.38878 128.675 3.53875 127.543 3.5928C127.033 3.61664 126.489 3.64744 125.908 3.68523C125.758 3.69511 125.684 3.77474 125.684 3.92413L125.69 57.2609C125.69 57.2703 125.692 57.2796 125.696 57.2882C125.7 57.2968 125.705 57.3046 125.712 57.311C125.719 57.3174 125.727 57.3223 125.736 57.3254C125.745 57.3284 125.754 57.3297 125.764 57.3289C126.143 57.3002 126.463 57.4449 126.806 57.4484C127.145 57.4525 127.484 57.4589 127.823 57.4676C128.088 57.474 128.426 57.4993 128.837 57.5434C129.594 57.6248 130.429 57.6672 131.341 57.6707C131.499 57.6716 131.597 57.7876 131.599 57.9489C131.606 58.4575 131.606 58.9859 131.6 59.534C131.6 59.5898 131.572 59.6177 131.516 59.6177L110 59.6159C109.983 59.616 109.966 59.6092 109.953 59.597C109.94 59.5848 109.933 59.5682 109.932 59.5506C109.908 59.0425 109.908 58.5252 109.932 57.9986C109.941 57.8033 110.035 57.7024 110.215 57.696C111.75 57.6428 113.276 57.4798 114.81 57.4301C115.128 57.4196 115.453 57.3446 115.791 57.3124C115.804 57.3113 115.816 57.3052 115.825 57.2953C115.834 57.2855 115.839 57.2726 115.839 57.2592L115.84 3.8134C115.84 3.78026 115.824 3.75963 115.792 3.75149Z" fill="url(#paint2_linear_8881_6962)"/>
<path d="M11.2471 59.772C5.57033 58.8246 1.16385 54.5203 0.164792 48.8395C0.163648 48.8315 0.149057 48.6925 0.12102 48.4224C0.101279 48.2259 0.0266072 48.0595 0.0248906 47.8707C0.023174 47.695 0.0220295 47.52 0.0214573 47.3455C0.0140188 31.9273 0.00686635 16.5045 0 1.0772C0 1.036 0.0163672 0.996495 0.0455012 0.967367C0.0746352 0.938239 0.114149 0.921875 0.155351 0.921875L58.8231 0.922733C58.9176 0.922733 58.9648 0.969644 58.9648 1.06347V59.7686C58.9648 59.8933 58.9021 59.9556 58.7768 59.9556C43.7492 59.9493 28.7171 59.945 13.6803 59.9428C13.0924 59.9428 12.5242 59.8964 11.9406 59.8518C11.6814 59.8323 11.4502 59.8057 11.2471 59.772ZM44.1944 44.2751C44.3157 44.1647 44.3763 44.1916 44.3763 44.3558L44.3772 49.4076C44.3772 49.4373 44.3921 49.4522 44.4218 49.4522H48.6652C48.6944 49.4522 48.709 49.4376 48.709 49.4084L48.7107 36.7683C48.7107 36.7391 48.6964 36.7245 48.6678 36.7245H40.2806C40.2531 36.7245 40.2394 36.7111 40.2394 36.6842C40.2314 34.9691 40.2302 33.2537 40.2359 31.538C40.2368 31.1089 41.2496 30.3684 41.5311 30.0878C42.4295 29.1896 43.3281 28.2849 44.227 27.3735C44.2394 27.3609 44.2553 27.3523 44.2727 27.3488C44.29 27.3453 44.308 27.347 44.3244 27.3537C44.3408 27.3604 44.3548 27.3718 44.3646 27.3865C44.3745 27.4012 44.3798 27.4185 44.3798 27.4362V32.5875C44.3798 32.615 44.3938 32.6287 44.4218 32.6287L48.7107 32.633C48.7416 32.633 48.7571 32.6175 48.7571 32.5866V19.9988C48.7571 19.9725 48.7439 19.9593 48.7176 19.9593L40.3261 19.9413C40.2723 19.9413 40.2445 19.9144 40.2428 19.8607C40.1638 17.6204 40.1535 15.419 40.2119 13.2565C40.2325 12.4951 40.2405 11.9439 40.2359 11.6029C40.2354 11.564 40.2156 11.5446 40.1767 11.5446L27.3761 11.5437C27.3447 11.5437 27.3292 11.5592 27.3298 11.5901L27.3512 15.7176C27.3518 15.7634 27.3747 15.7866 27.4199 15.7871L32.3396 15.8266C32.3476 15.8266 32.3554 15.8289 32.3621 15.8331C32.3689 15.8374 32.3743 15.8434 32.3777 15.8506C32.3811 15.8578 32.3824 15.8658 32.3814 15.8737C32.3805 15.8816 32.3773 15.8891 32.3723 15.8953C32.2504 16.0497 32.1216 16.1968 31.986 16.3363C30.8948 17.4645 29.7862 18.5755 28.6601 19.6693C28.4911 19.8341 28.3108 19.9525 28.0911 19.9482C26.5124 19.9156 24.9337 19.9001 23.355 19.9018C23.3281 19.9018 23.313 19.8884 23.3095 19.8615C23.2821 19.653 23.2434 19.4402 23.2434 19.2334C23.2423 16.6905 23.2426 14.145 23.2443 11.5969C23.2443 11.5632 23.2271 11.5463 23.1928 11.5463C22.5062 11.5463 21.7964 11.5043 21.1372 11.5C17.5541 11.4742 13.9693 11.4905 10.3828 11.5489C10.357 11.5489 10.3442 11.5617 10.3442 11.5875V15.8275C10.3442 15.8555 10.3579 15.8695 10.3854 15.8695L14.9798 15.8704C15.0187 15.8704 15.0279 15.8867 15.0073 15.9193C14.9403 16.0286 14.8539 16.1361 14.7481 16.242C13.325 17.6762 11.9008 19.0949 10.4755 20.4982C10.4339 20.539 10.4008 20.5876 10.3783 20.6413C10.3557 20.6949 10.3441 20.7525 10.3442 20.8106V32.5909C10.3442 32.6304 10.3639 32.6504 10.4034 32.651C10.6746 32.6579 10.9407 32.6922 11.2059 32.6913C12.5866 32.6885 13.9693 32.6887 15.354 32.6922C15.3969 32.6922 15.4058 32.7096 15.3806 32.7445C15.3005 32.8544 15.1964 32.9736 15.0682 33.1024C13.3058 34.8678 11.8078 36.3449 10.5742 37.5337C10.4223 37.6796 10.3442 37.798 10.3442 38.0246C10.3442 41.8175 10.3442 45.6109 10.3442 49.405C10.3442 49.4365 10.3599 49.4522 10.3914 49.4522C10.9707 49.4513 11.5827 49.5105 12.1208 49.5105C14.1779 49.5111 16.2349 49.5111 18.292 49.5105C18.3718 49.5105 18.4336 49.4728 18.5211 49.4728C19.6312 49.4728 20.7318 49.4639 21.823 49.4462C21.9292 49.444 22.0304 49.401 22.1054 49.326L27.2525 44.1902C27.2581 44.1847 27.2651 44.1809 27.2727 44.1794C27.2803 44.1778 27.2882 44.1784 27.2955 44.1812C27.3027 44.184 27.309 44.1889 27.3136 44.1952C27.3182 44.2015 27.3208 44.209 27.3212 44.2168C27.3887 45.4256 27.4036 46.6438 27.3658 47.8715C27.3424 48.641 27.3309 49.1513 27.3315 49.4024C27.3315 49.435 27.3481 49.4513 27.3813 49.4513C31.0245 49.4525 34.6676 49.4525 38.3108 49.4513C38.6078 49.4513 38.7983 49.3938 38.9983 49.1965C40.7332 47.4888 42.4652 45.8484 44.1944 44.2751Z" fill="url(#paint3_linear_8881_6962)"/>
<path d="M19.367 24.446C19.3739 24.4952 19.4022 24.5198 19.452 24.5198L24.3297 24.5207C24.36 24.5207 24.3666 24.5329 24.3494 24.5575C24.1829 24.8035 24.0542 24.9697 23.9632 25.0561C22.5876 26.3639 21.4656 27.4649 20.597 28.359C20.2897 28.6765 20.1309 28.5555 19.7722 28.5555C18.2679 28.5555 16.763 28.555 15.2575 28.5538C15.2284 28.5538 15.2138 28.5392 15.2138 28.5101C15.2057 26.0621 15.2049 24.4546 15.2112 23.6874C15.2118 23.6228 15.2418 23.5598 15.3013 23.4986C16.4961 22.2612 17.7123 21.0452 18.9499 19.8507C19.0558 19.7489 19.1708 19.6591 19.2949 19.5813C19.3293 19.5601 19.347 19.5696 19.3482 19.6096C19.3731 20.3768 19.3061 21.3104 19.3027 21.8982C19.2984 22.7383 19.2503 23.6128 19.367 24.446Z" fill="url(#paint4_linear_8881_6962)"/>
<path d="M36.3904 24.4589L41.3025 24.4597C41.3118 24.4598 41.3209 24.4625 41.3287 24.4676C41.3365 24.4726 41.3428 24.4798 41.3466 24.4883C41.3505 24.4968 41.3519 24.5062 41.3506 24.5154C41.3493 24.5246 41.3454 24.5333 41.3394 24.5404C40.976 24.9557 40.6015 25.347 40.2159 25.7143C39.2812 26.6033 38.3688 27.5086 37.4599 28.4234C37.3603 28.5229 37.2333 28.5538 37.0831 28.5538C35.4706 28.5556 33.8579 28.5553 32.2449 28.553C32.2168 28.553 32.2028 28.539 32.2028 28.5109V23.6823C32.2028 23.6519 32.2131 23.6259 32.2337 23.6042C33.3918 22.3919 34.5694 21.2023 35.7665 20.0352C35.8969 19.9082 36.0694 19.783 36.2059 19.6405C36.2173 19.6287 36.2319 19.6206 36.2479 19.6172C36.2639 19.6138 36.2805 19.6152 36.2957 19.6213C36.3109 19.6274 36.324 19.6378 36.3332 19.6513C36.3424 19.6648 36.3474 19.6808 36.3475 19.6971V24.416C36.3475 24.4446 36.3618 24.4589 36.3904 24.4589Z" fill="url(#paint5_linear_8881_6962)"/>
<path d="M27.9824 32.9306H32.7433C32.7937 32.9306 32.802 32.9489 32.7682 32.9855C32.6944 33.0653 32.6506 33.1674 32.5777 33.2455C32.1262 33.7301 31.6565 34.1952 31.1684 34.6408C30.6551 35.1085 30.1942 35.6105 29.693 36.0876C29.3342 36.43 29.0587 36.9655 28.4476 36.9655C26.8906 36.9666 25.3345 36.966 23.7793 36.9637C23.7496 36.9637 23.7344 36.9486 23.7338 36.9183C23.7287 35.3204 23.7281 33.7252 23.7321 32.1325C23.7321 31.9128 23.8214 31.8699 23.9613 31.7266C25.2115 30.4389 26.4827 29.1814 27.7747 27.9543C27.7789 27.9503 27.7842 27.9476 27.79 27.9466C27.7957 27.9456 27.8016 27.9462 27.807 27.9485C27.8124 27.9508 27.817 27.9546 27.8202 27.9594C27.8235 27.9643 27.8252 27.9699 27.8253 27.9758L27.8262 32.7744C27.8262 32.8785 27.8782 32.9306 27.9824 32.9306Z" fill="url(#paint6_linear_8881_6962)"/>
<path d="M19.3945 41.2995L24.1821 41.2978C24.1895 41.2979 24.1967 41.2999 24.2031 41.3037C24.2095 41.3074 24.2148 41.3127 24.2185 41.3191C24.2222 41.3254 24.224 41.3326 24.224 41.3399C24.2239 41.3471 24.2219 41.3543 24.2181 41.3605C24.0302 41.678 23.7915 41.8745 23.5332 42.1302C22.4781 43.1725 21.447 44.2031 20.4399 45.222C20.3899 45.2726 20.3304 45.3126 20.2648 45.3399C20.1992 45.3671 20.1289 45.381 20.058 45.3808L15.2524 45.3507C15.2243 45.3507 15.2103 45.3367 15.2103 45.3087V40.4792C15.2103 40.4069 15.238 40.3373 15.2876 40.2844C15.5828 39.972 15.8704 39.6322 16.1802 39.3353C17.114 38.4417 18.0358 37.5361 18.9456 36.6185C19.0272 36.5361 19.1456 36.4786 19.2374 36.4014C19.2769 36.3682 19.297 36.3776 19.2975 36.4297L19.3499 41.2549C19.3499 41.2847 19.3648 41.2995 19.3945 41.2995Z" fill="url(#paint7_linear_8881_6962)"/>
<path d="M36.3892 41.2956L41.2857 41.293C41.3864 41.293 41.4025 41.3302 41.3338 41.4046C40.6841 42.1048 39.9914 42.7647 39.3177 43.4409C38.8808 43.8802 38.153 44.5401 37.6097 45.1348C37.5161 45.2386 37.3299 45.3751 37.1882 45.3751C35.5769 45.3757 33.9402 45.3711 32.2779 45.3614C32.2581 45.3611 32.2391 45.3532 32.2251 45.3392C32.2111 45.3252 32.2033 45.3064 32.2033 45.2867C32.2021 43.7243 32.2024 42.1543 32.2041 40.5765C32.2041 40.452 32.2797 40.2821 32.3698 40.1963C33.6383 38.9818 34.888 37.7458 36.1188 36.4884C36.2716 36.3322 36.348 36.3631 36.348 36.581V41.2552C36.348 41.2821 36.3617 41.2956 36.3892 41.2956Z" fill="url(#paint8_linear_8881_6962)"/>
<path fill-rule="evenodd" clip-rule="evenodd" d="M176.076 7.54261C177.983 7.54261 179.528 5.99723 179.528 4.09091C179.528 2.18459 177.983 0.639205 176.076 0.639205C174.169 0.639205 172.624 2.18459 172.624 4.09091C172.624 5.99723 174.169 7.54261 176.076 7.54261ZM176.076 8.18182C178.336 8.18182 180.168 6.35026 180.168 4.09091C180.168 1.83156 178.336 0 176.076 0C173.816 0 171.984 1.83156 171.984 4.09091C171.984 6.35026 173.816 8.18182 176.076 8.18182Z" fill="white"/>
<path d="M174.668 2.04688H176.197C176.511 2.04688 176.78 2.09381 177.006 2.18767C177.233 2.28153 177.407 2.42045 177.529 2.60442C177.652 2.78839 177.713 3.0146 177.713 3.28305C177.713 3.50268 177.675 3.69135 177.6 3.84904C177.527 4.00485 177.422 4.13532 177.287 4.24044C177.154 4.34369 176.997 4.42629 176.817 4.48824L176.549 4.62904H175.22L175.214 3.97012H176.203C176.351 3.97012 176.474 3.94384 176.572 3.89128C176.67 3.83871 176.743 3.7655 176.792 3.67164C176.842 3.57777 176.868 3.46889 176.868 3.345C176.868 3.21359 176.843 3.10001 176.794 3.00427C176.746 2.90853 176.671 2.83532 176.572 2.78464C176.472 2.73395 176.348 2.70861 176.197 2.70861H175.513V6.14679H174.668V2.04688ZM176.961 6.14679L176.025 4.31929L176.918 4.31366L177.865 6.10737V6.14679H176.961Z" fill="white"/>
<defs>
<linearGradient id="paint0_linear_8881_6962" x1="155.323" y1="0" x2="155.323" y2="61.0428" gradientUnits="userSpaceOnUse">
<stop stop-color="#68BD99"/>
<stop offset="1" stop-color="#1DB5C1"/>
</linearGradient>
<linearGradient id="paint1_linear_8881_6962" x1="86.4244" y1="1.43359" x2="86.4244" y2="59.6153" gradientUnits="userSpaceOnUse">
<stop stop-color="#68BD99"/>
<stop offset="1" stop-color="#1DB5C1"/>
</linearGradient>
<linearGradient id="paint2_linear_8881_6962" x1="120.759" y1="1.44531" x2="120.759" y2="59.6177" gradientUnits="userSpaceOnUse">
<stop stop-color="#68BD99"/>
<stop offset="1" stop-color="#1DB5C1"/>
</linearGradient>
<linearGradient id="paint3_linear_8881_6962" x1="59.1117" y1="60.0027" x2="0.0116993" y2="0.890987" gradientUnits="userSpaceOnUse">
<stop stop-color="#254A8C"/>
<stop offset="1" stop-color="#1DB0BE"/>
</linearGradient>
<linearGradient id="paint4_linear_8881_6962" x1="41.4071" y1="45.3023" x2="15.3071" y2="19.4972" gradientUnits="userSpaceOnUse">
<stop stop-color="#254A8C"/>
<stop offset="1" stop-color="#1DB0BE"/>
</linearGradient>
<linearGradient id="paint5_linear_8881_6962" x1="41.4071" y1="45.3023" x2="15.3071" y2="19.4972" gradientUnits="userSpaceOnUse">
<stop stop-color="#254A8C"/>
<stop offset="1" stop-color="#1DB0BE"/>
</linearGradient>
<linearGradient id="paint6_linear_8881_6962" x1="41.4071" y1="45.3023" x2="15.3071" y2="19.4972" gradientUnits="userSpaceOnUse">
<stop stop-color="#254A8C"/>
<stop offset="1" stop-color="#1DB0BE"/>
</linearGradient>
<linearGradient id="paint7_linear_8881_6962" x1="41.4071" y1="45.3023" x2="15.3071" y2="19.4972" gradientUnits="userSpaceOnUse">
<stop stop-color="#254A8C"/>
<stop offset="1" stop-color="#1DB0BE"/>
</linearGradient>
<linearGradient id="paint8_linear_8881_6962" x1="41.4071" y1="45.3023" x2="15.3071" y2="19.4972" gradientUnits="userSpaceOnUse">
<stop stop-color="#254A8C"/>
<stop offset="1" stop-color="#1DB0BE"/>
</linearGradient>
</defs>
</svg>
