<svg width="50" height="50" viewBox="0 0 50 50" fill="none" xmlns="http://www.w3.org/2000/svg">
<path d="M25.8267 50C15.8929 50 6.5 41.2259 6.5 31.9436C6.60688 26.7743 8.05182 21.7247 10.6889 17.2861C11.1637 16.502 12.0064 16.0212 12.919 16.0088C13.8316 15.9964 14.6846 16.4545 15.182 17.2242C15.5581 17.7979 16.0411 18.2931 16.6064 18.679C18.0554 10.924 23.2163 4.38448 30.4081 1.20058C31.3166 0.800245 32.3751 1.01072 33.0658 1.72885C33.7543 2.44492 33.9249 3.51589 33.4933 4.41354C31.5797 8.92658 33.9352 14.1575 37.1314 17.3129C40.496 20.6538 44.5 25.9925 44.5 32.476C44.5 42.1375 36.124 50 25.8267 50ZM13.0278 19.843C10.9868 23.5512 9.87482 27.7053 9.78853 31.9436C9.78853 39.3912 17.7328 46.6983 25.8265 46.6983C33.2241 46.6983 41.2089 41.2629 41.2089 32.4782C41.2089 26.8511 37.205 22.0343 34.8185 19.6655C31.2955 16.1863 28.6316 10.5797 29.8156 5.17916L29.8197 5.1771C24.3422 8.30136 20.6074 13.7864 19.6929 20.0411C18.7474 23.6586 14.7209 22.115 13.0272 19.843L13.0278 19.843ZM30.4948 3.05773C30.4887 3.07424 30.4804 3.09075 30.4743 3.10726L30.4948 3.05773ZM25.5064 43.842C25.0706 43.842 24.6513 43.6687 24.343 43.3592L16.284 35.2681C10.1382 29.0297 18.6292 19.3909 25.4985 24.4322C32.3431 19.3847 40.8441 29.0174 34.7604 35.2348L26.6703 43.3592H26.6683C26.36 43.6687 25.9427 43.842 25.507 43.842H25.5064ZM21.4099 26.343C18.2426 26.5473 15.9282 30.0244 18.6495 32.9712L25.5083 39.8573L32.3981 32.9401L32.3961 32.938C33.1237 32.1889 33.5163 31.1757 33.4834 30.1274C33.4505 29.0812 32.9963 28.0948 32.2255 27.3911C31.4526 26.6875 30.4291 26.3304 29.3891 26.3985C28.349 26.4687 27.3809 26.9598 26.7088 27.7584C26.3881 28.0845 25.9524 28.2661 25.4982 28.2661C25.0439 28.2661 24.6082 28.0845 24.2896 27.7584C23.5784 26.8897 22.5281 26.3738 21.4079 26.3428L21.4099 26.343Z" fill="black"/>
</svg>
