<svg width="50" height="50" viewBox="0 0 50 50" fill="none" xmlns="http://www.w3.org/2000/svg">
<g clip-path="url(#clip0_8881_7006)">
<path d="M34.6956 13.823C34.7829 13.9021 34.8701 13.9811 34.96 14.0626C35.0099 14.1077 35.0599 14.1529 35.1113 14.1994C35.989 15.0036 36.6804 15.882 37.3038 16.8946C37.3404 16.9537 37.377 17.0129 37.4147 17.0738C39.0398 19.7538 39.536 23.211 38.8217 26.2569C37.9346 29.7335 35.8345 32.5334 32.7627 34.3831C30.6389 35.547 30.6389 35.547 29.6866 35.547C29.6886 35.6208 29.6907 35.6947 29.6928 35.7707C29.7009 36.1071 29.706 36.4435 29.711 36.7799C29.7143 36.8961 29.7175 37.0123 29.7209 37.132C29.7331 38.2247 29.7331 38.2247 29.2959 38.672C28.8531 39.02 28.5667 39.1115 28.0058 39.1122C27.9028 39.1131 27.9028 39.1131 27.7977 39.114C27.5687 39.1156 27.3399 39.1144 27.1109 39.1131C26.9463 39.1137 26.7816 39.1144 26.617 39.1152C26.1707 39.117 25.7244 39.1163 25.2781 39.1151C24.8107 39.1141 24.3434 39.115 23.876 39.1156C23.0912 39.1163 22.3064 39.1154 21.5216 39.1135C20.6146 39.1114 19.7076 39.1121 18.8007 39.1142C18.0216 39.116 17.2425 39.1163 16.4633 39.1152C15.9982 39.1146 15.533 39.1145 15.0679 39.1158C14.6305 39.117 14.1932 39.1162 13.7559 39.1139C13.5955 39.1134 13.4351 39.1136 13.2748 39.1144C13.0556 39.1155 12.8365 39.1141 12.6173 39.1122C12.4948 39.112 12.3722 39.1119 12.2459 39.1117C11.7169 39.0336 11.4365 38.8026 11.0984 38.3986C10.9082 38.0313 10.8875 37.7942 10.887 37.3818C10.886 37.2788 10.886 37.2788 10.8851 37.1737C10.8836 36.9447 10.8848 36.7159 10.886 36.4869C10.8855 36.3223 10.8848 36.1577 10.8839 35.993C10.8822 35.5467 10.8829 35.1005 10.8841 34.6541C10.8851 34.1868 10.8842 33.7194 10.8836 33.252C10.8828 32.4672 10.8838 31.6824 10.8856 30.8976C10.8878 29.9906 10.8871 29.0837 10.8849 28.1767C10.8832 27.3976 10.8829 26.6185 10.8839 25.8394C10.8845 25.3742 10.8846 24.9091 10.8833 24.4439C10.8822 24.0066 10.883 23.5693 10.8852 23.1319C10.8858 22.9715 10.8856 22.8112 10.8847 22.6508C10.8837 22.4316 10.885 22.2125 10.887 21.9933C10.8871 21.8708 10.8873 21.7482 10.8874 21.6219C10.9617 21.1187 11.204 20.8205 11.566 20.4759C12.0901 20.2293 12.5979 20.2465 13.1705 20.2394C13.2843 20.2365 13.3981 20.2336 13.5153 20.2306C13.7951 20.2237 14.0747 20.2185 14.3545 20.2149C14.401 20.0569 14.401 20.0569 14.4484 19.8956C15.4499 16.626 17.5855 13.9333 20.605 12.2963C25.13 9.93644 30.8008 10.4829 34.6956 13.823ZM19.2373 17.5782C18.737 18.2236 17.7725 19.4859 17.7725 20.3126C17.8562 20.3128 17.8562 20.3128 17.9417 20.313C19.3013 20.3166 20.6608 20.3224 22.0204 20.3306C22.6778 20.3344 23.3353 20.3376 23.9928 20.3391C24.6273 20.3405 25.2617 20.3439 25.8962 20.3486C26.1383 20.35 26.3804 20.3508 26.6225 20.3509C26.9615 20.3511 27.3004 20.3537 27.6395 20.3569C27.7396 20.3564 27.8398 20.356 27.943 20.3554C28.5051 20.3637 28.8622 20.406 29.2959 20.8009C29.6951 21.2484 29.6319 21.7808 29.6311 22.3486C29.6326 22.5087 29.6326 22.5087 29.6341 22.6721C29.6371 23.0245 29.638 23.377 29.6389 23.7294C29.6405 23.9739 29.6423 24.2185 29.6442 24.463C29.6484 25.0406 29.6512 25.6181 29.6535 26.1957C29.6564 26.918 29.6613 27.6403 29.6662 28.3626C29.6746 29.6506 29.6812 30.9386 29.6866 32.2267C29.8742 32.1497 30.0618 32.0725 30.2492 31.9952C30.3537 31.9522 30.4581 31.9092 30.5657 31.8649C32.7709 30.9115 34.4413 28.8954 35.3323 26.7091C35.4067 26.4986 35.478 26.287 35.5459 26.0743C35.5772 25.9773 35.6084 25.8802 35.6405 25.7802C36.2991 23.3016 35.7744 20.7138 34.5347 18.5201C33.1798 16.3413 30.9996 14.8527 28.5147 14.2579C24.9773 13.6181 21.5808 14.8326 19.2373 17.5782ZM14.0616 23.4376C14.0616 27.5626 14.0616 31.6876 14.0616 35.9376C18.1866 35.9376 22.3116 35.9376 26.5616 35.9376C26.5616 31.8126 26.5616 27.6876 26.5616 23.4376C22.4366 23.4376 18.3116 23.4376 14.0616 23.4376Z" fill="#181818"/>
<path d="M42.339 40.5733C42.4105 40.5726 42.482 40.572 42.5557 40.5712C42.7907 40.5695 43.0256 40.5707 43.2606 40.572C43.4247 40.5717 43.5889 40.5713 43.7531 40.5709C44.0965 40.5703 44.44 40.5711 44.7834 40.5729C45.2228 40.5752 45.6621 40.5739 46.1015 40.5715C46.4403 40.5701 46.7791 40.5706 47.1179 40.5716C47.2798 40.5719 47.4418 40.5715 47.6038 40.5706C47.8305 40.5696 48.0571 40.5712 48.2838 40.5733C48.4126 40.5736 48.5413 40.5739 48.674 40.5743C49.2128 40.651 49.4912 40.8757 49.837 41.2857C50.0311 41.6631 50.0484 41.9156 50.0494 42.339C50.0501 42.4105 50.0508 42.482 50.0515 42.5557C50.0532 42.7907 50.0521 43.0256 50.0507 43.2606C50.051 43.4247 50.0514 43.5889 50.0519 43.7531C50.0525 44.0965 50.0516 44.44 50.0498 44.7834C50.0476 45.2228 50.0488 45.6621 50.0512 46.1015C50.0526 46.4403 50.0521 46.7791 50.0511 47.1179C50.0509 47.2798 50.0512 47.4418 50.0521 47.6038C50.0531 47.8305 50.0516 48.0571 50.0494 48.2838C50.0491 48.4126 50.0488 48.5413 50.0485 48.674C49.9717 49.2128 49.747 49.4912 49.337 49.837C48.9596 50.0311 48.7071 50.0484 48.2838 50.0494C48.2122 50.0501 48.1407 50.0508 48.067 50.0515C47.832 50.0532 47.5971 50.0521 47.3621 50.0507C47.198 50.051 47.0338 50.0514 46.8697 50.0519C46.5262 50.0525 46.1828 50.0516 45.8393 50.0498C45.3999 50.0476 44.9606 50.0488 44.5213 50.0512C44.1825 50.0526 43.8437 50.0521 43.5049 50.0511C43.3429 50.0509 43.1809 50.0512 43.019 50.0521C42.7922 50.0531 42.5657 50.0516 42.339 50.0494C42.2102 50.0491 42.0814 50.0488 41.9487 50.0485C41.41 49.9717 41.1315 49.747 40.7857 49.337C40.5916 48.9596 40.5743 48.7071 40.5733 48.2838C40.5726 48.2122 40.572 48.1407 40.5712 48.067C40.5695 47.832 40.5707 47.5971 40.572 47.3621C40.5717 47.198 40.5713 47.0338 40.5709 46.8697C40.5703 46.5262 40.5711 46.1828 40.5729 45.8393C40.5752 45.3999 40.5739 44.9606 40.5715 44.5213C40.5701 44.1825 40.5706 43.8437 40.5716 43.5049C40.5719 43.3429 40.5715 43.1809 40.5706 43.019C40.5696 42.7922 40.5712 42.5657 40.5733 42.339C40.5736 42.2102 40.5739 42.0814 40.5743 41.9487C40.651 41.41 40.8757 41.1315 41.2857 40.7857C41.6631 40.5916 41.9156 40.5743 42.339 40.5733ZM43.7489 43.7489C43.7489 44.7801 43.7489 45.8114 43.7489 46.8739C44.7801 46.8739 45.8114 46.8739 46.8739 46.8739C46.8739 45.8426 46.8739 44.8114 46.8739 43.7489C45.8426 43.7489 44.8114 43.7489 43.7489 43.7489Z" fill="#181818"/>
<path d="M1.71395 40.5733C1.78549 40.5726 1.85702 40.572 1.93072 40.5712C2.16571 40.5695 2.40059 40.5707 2.63558 40.572C2.79974 40.5717 2.9639 40.5713 3.12806 40.5709C3.47153 40.5703 3.81495 40.5711 4.15841 40.5729C4.59779 40.5752 5.03708 40.5739 5.47646 40.5715C5.81527 40.5701 6.15405 40.5706 6.49286 40.5716C6.65483 40.5719 6.8168 40.5715 6.97876 40.5706C7.20549 40.5696 7.43206 40.5712 7.65878 40.5733C7.78756 40.5736 7.91634 40.5739 8.04902 40.5743C8.58777 40.651 8.86618 40.8757 9.21201 41.2857C9.40609 41.6631 9.42339 41.9156 9.42441 42.339C9.42509 42.4105 9.42578 42.482 9.42648 42.5557C9.42819 42.7907 9.42707 43.0256 9.42575 43.2606C9.42601 43.4247 9.42639 43.5889 9.42688 43.7531C9.42745 44.0965 9.42662 44.44 9.42479 44.7834C9.42257 45.2228 9.42385 45.6621 9.42619 46.1015C9.4276 46.4403 9.42715 46.7791 9.42614 47.1179C9.42588 47.2798 9.42619 47.4418 9.4271 47.6038C9.4281 47.8305 9.42658 48.0571 9.42441 48.2838C9.4241 48.4126 9.42379 48.5413 9.42347 48.674C9.34674 49.2128 9.12202 49.4912 8.71202 49.837C8.33465 50.0311 8.08208 50.0484 7.65878 50.0494C7.58724 50.0501 7.51571 50.0508 7.44201 50.0515C7.20702 50.0532 6.97214 50.0521 6.73715 50.0507C6.57299 50.051 6.40883 50.0514 6.24467 50.0519C5.9012 50.0525 5.55778 50.0516 5.21432 50.0498C4.77494 50.0476 4.33565 50.0488 3.89627 50.0512C3.55746 50.0526 3.21868 50.0521 2.87987 50.0511C2.7179 50.0509 2.55593 50.0512 2.39397 50.0521C2.16724 50.0531 1.94067 50.0516 1.71395 50.0494C1.58517 50.0491 1.45639 50.0488 1.32371 50.0485C0.784956 49.9717 0.506547 49.747 0.160715 49.337C-0.0333582 48.9596 -0.0506583 48.7071 -0.0516798 48.2838C-0.0523643 48.2122 -0.0530488 48.1407 -0.0537541 48.067C-0.0554646 47.832 -0.0543382 47.5971 -0.053015 47.3621C-0.0532783 47.198 -0.0536576 47.0338 -0.0541475 46.8697C-0.0547223 46.5262 -0.0538897 46.1828 -0.0520613 45.8393C-0.0498358 45.3999 -0.0511178 44.9606 -0.0534568 44.5213C-0.054871 44.1825 -0.0544179 43.8437 -0.0534069 43.5049C-0.053147 43.3429 -0.0534635 43.1809 -0.0543755 43.019C-0.0553721 42.7922 -0.0538492 42.5657 -0.0516798 42.339C-0.0513691 42.2102 -0.0510583 42.0814 -0.0507381 41.9487C0.0259922 41.41 0.250712 41.1315 0.660715 40.7857C1.03808 40.5916 1.29065 40.5743 1.71395 40.5733ZM3.12387 43.7489C3.12387 44.7801 3.12387 45.8114 3.12387 46.8739C4.15512 46.8739 5.18637 46.8739 6.24887 46.8739C6.24887 45.8426 6.24887 44.8114 6.24887 43.7489C5.21762 43.7489 4.18637 43.7489 3.12387 43.7489Z" fill="#181818"/>
<path d="M42.339 -0.0516798C42.4105 -0.0523643 42.482 -0.0530488 42.5557 -0.0537541C42.7907 -0.0554646 43.0256 -0.0543382 43.2606 -0.053015C43.4247 -0.0532783 43.5889 -0.0536576 43.7531 -0.0541475C44.0965 -0.0547223 44.44 -0.0538897 44.7834 -0.0520613C45.2228 -0.0498358 45.6621 -0.0511178 46.1015 -0.0534568C46.4403 -0.054871 46.7791 -0.0544179 47.1179 -0.0534069C47.2798 -0.053147 47.4418 -0.0534635 47.6038 -0.0543755C47.8305 -0.0553721 48.0571 -0.0538492 48.2838 -0.0516798C48.4126 -0.0513691 48.5413 -0.0510583 48.674 -0.0507381C49.2128 0.0259922 49.4912 0.250712 49.837 0.660715C50.0311 1.03808 50.0484 1.29065 50.0494 1.71395C50.0501 1.78549 50.0508 1.85702 50.0515 1.93072C50.0532 2.16571 50.0521 2.40059 50.0507 2.63558C50.051 2.79974 50.0514 2.9639 50.0519 3.12806C50.0525 3.47153 50.0516 3.81495 50.0498 4.15841C50.0476 4.59779 50.0488 5.03708 50.0512 5.47646C50.0526 5.81527 50.0521 6.15405 50.0511 6.49286C50.0509 6.65483 50.0512 6.8168 50.0521 6.97876C50.0531 7.20549 50.0516 7.43206 50.0494 7.65878C50.0491 7.78756 50.0488 7.91634 50.0485 8.04902C49.9717 8.58777 49.747 8.86618 49.337 9.21201C48.9596 9.40609 48.7071 9.42339 48.2838 9.42441C48.2122 9.42509 48.1407 9.42578 48.067 9.42648C47.832 9.42819 47.5971 9.42707 47.3621 9.42575C47.198 9.42601 47.0338 9.42639 46.8697 9.42688C46.5262 9.42745 46.1828 9.42662 45.8393 9.42479C45.3999 9.42257 44.9606 9.42385 44.5213 9.42619C44.1825 9.4276 43.8437 9.42715 43.5049 9.42614C43.3429 9.42588 43.1809 9.42619 43.019 9.4271C42.7922 9.4281 42.5657 9.42658 42.339 9.42441C42.2102 9.4241 42.0814 9.42379 41.9487 9.42347C41.41 9.34674 41.1315 9.12202 40.7857 8.71202C40.5916 8.33465 40.5743 8.08208 40.5733 7.65878C40.5726 7.58724 40.572 7.51571 40.5712 7.44201C40.5695 7.20702 40.5707 6.97214 40.572 6.73715C40.5717 6.57299 40.5713 6.40883 40.5709 6.24467C40.5703 5.9012 40.5711 5.55778 40.5729 5.21432C40.5752 4.77494 40.5739 4.33565 40.5715 3.89627C40.5701 3.55746 40.5706 3.21868 40.5716 2.87987C40.5719 2.7179 40.5715 2.55593 40.5706 2.39397C40.5696 2.16724 40.5712 1.94067 40.5733 1.71395C40.5736 1.58517 40.5739 1.45639 40.5743 1.32371C40.651 0.784956 40.8757 0.506547 41.2857 0.160715C41.6631 -0.0333582 41.9156 -0.0506583 42.339 -0.0516798ZM43.7489 3.12387C43.7489 4.15512 43.7489 5.18637 43.7489 6.24887C44.7801 6.24887 45.8114 6.24887 46.8739 6.24887C46.8739 5.21762 46.8739 4.18637 46.8739 3.12387C45.8426 3.12387 44.8114 3.12387 43.7489 3.12387Z" fill="#181818"/>
<path d="M1.71395 -0.0516798C1.78549 -0.0523643 1.85702 -0.0530488 1.93072 -0.0537541C2.16571 -0.0554646 2.40059 -0.0543382 2.63558 -0.053015C2.79974 -0.0532783 2.9639 -0.0536576 3.12806 -0.0541475C3.47153 -0.0547223 3.81495 -0.0538897 4.15841 -0.0520613C4.59779 -0.0498358 5.03708 -0.0511178 5.47646 -0.0534568C5.81527 -0.054871 6.15405 -0.0544179 6.49286 -0.0534069C6.65483 -0.053147 6.8168 -0.0534635 6.97876 -0.0543755C7.20549 -0.0553721 7.43206 -0.0538492 7.65878 -0.0516798C7.78756 -0.0513691 7.91634 -0.0510583 8.04902 -0.0507381C8.58777 0.0259922 8.86618 0.250712 9.21201 0.660715C9.40609 1.03808 9.42339 1.29065 9.42441 1.71395C9.42509 1.78549 9.42578 1.85702 9.42648 1.93072C9.42819 2.16571 9.42707 2.40059 9.42575 2.63558C9.42601 2.79974 9.42639 2.9639 9.42688 3.12806C9.42745 3.47153 9.42662 3.81495 9.42479 4.15841C9.42257 4.59779 9.42385 5.03708 9.42619 5.47646C9.4276 5.81527 9.42715 6.15405 9.42614 6.49286C9.42588 6.65483 9.42619 6.8168 9.4271 6.97876C9.4281 7.20549 9.42658 7.43206 9.42441 7.65878C9.4241 7.78756 9.42379 7.91634 9.42347 8.04902C9.34674 8.58777 9.12202 8.86618 8.71202 9.21201C8.33465 9.40609 8.08208 9.42339 7.65878 9.42441C7.58724 9.42509 7.51571 9.42578 7.44201 9.42648C7.20702 9.42819 6.97214 9.42707 6.73715 9.42575C6.57299 9.42601 6.40883 9.42639 6.24467 9.42688C5.9012 9.42745 5.55778 9.42662 5.21432 9.42479C4.77494 9.42257 4.33565 9.42385 3.89627 9.42619C3.55746 9.4276 3.21868 9.42715 2.87987 9.42614C2.7179 9.42588 2.55593 9.42619 2.39397 9.4271C2.16724 9.4281 1.94067 9.42658 1.71395 9.42441C1.58517 9.4241 1.45639 9.42379 1.32371 9.42347C0.784956 9.34674 0.506547 9.12202 0.160715 8.71202C-0.0333582 8.33465 -0.0506583 8.08208 -0.0516798 7.65878C-0.0523643 7.58724 -0.0530488 7.51571 -0.0537541 7.44201C-0.0554646 7.20702 -0.0543382 6.97214 -0.053015 6.73715C-0.0532783 6.57299 -0.0536576 6.40883 -0.0541475 6.24467C-0.0547223 5.9012 -0.0538897 5.55778 -0.0520613 5.21432C-0.0498358 4.77494 -0.0511178 4.33565 -0.0534568 3.89627C-0.054871 3.55746 -0.0544179 3.21868 -0.0534069 2.87987C-0.053147 2.7179 -0.0534635 2.55593 -0.0543755 2.39397C-0.0553721 2.16724 -0.0538492 1.94067 -0.0516798 1.71395C-0.0513691 1.58517 -0.0510583 1.45639 -0.0507381 1.32371C0.0259922 0.784956 0.250712 0.506547 0.660715 0.160715C1.03808 -0.0333582 1.29065 -0.0506583 1.71395 -0.0516798ZM3.12387 3.12387C3.12387 4.15512 3.12387 5.18637 3.12387 6.24887C4.15512 6.24887 5.18637 6.24887 6.24887 6.24887C6.24887 5.21762 6.24887 4.18637 6.24887 3.12387C5.21762 3.12387 4.18637 3.12387 3.12387 3.12387Z" fill="#181818"/>
<path d="M33.2051 43.6977C33.2982 43.6973 33.3914 43.697 33.4874 43.6966C33.6837 43.6963 33.88 43.697 34.0764 43.6987C34.376 43.7008 34.6754 43.6987 34.9751 43.6962C35.1663 43.6964 35.3576 43.6969 35.5488 43.6977C35.6825 43.6965 35.6825 43.6965 35.8189 43.6953C36.364 43.7033 36.6792 43.7766 37.1113 44.1402C37.4657 44.5132 37.5322 44.8124 37.5508 45.3121C37.5322 45.8118 37.4657 46.111 37.1113 46.484C36.5972 46.9165 36.1911 46.9322 35.5488 46.9265C35.4091 46.927 35.4091 46.927 35.2665 46.9276C35.0702 46.9279 34.8739 46.9272 34.6776 46.9255C34.3779 46.9234 34.0785 46.9255 33.7788 46.928C33.5876 46.9277 33.3963 46.9272 33.2051 46.9265C33.0714 46.9277 33.0714 46.9277 32.935 46.9289C32.3899 46.9209 32.0747 46.8475 31.6426 46.484C31.2882 46.111 31.2217 45.8118 31.2031 45.3121C31.2217 44.8124 31.2882 44.5132 31.6426 44.1402C32.1567 43.7077 32.5628 43.692 33.2051 43.6977Z" fill="#181818"/>
<path d="M23.8301 43.6977C23.9232 43.6973 24.0164 43.697 24.1124 43.6966C24.3087 43.6963 24.505 43.697 24.7014 43.6987C25.001 43.7008 25.3004 43.6987 25.6001 43.6962C25.7913 43.6964 25.9826 43.6969 26.1738 43.6977C26.3075 43.6965 26.3075 43.6965 26.4439 43.6953C26.989 43.7033 27.3042 43.7766 27.7363 44.1402C28.0907 44.5132 28.1572 44.8124 28.1758 45.3121C28.1572 45.8118 28.0907 46.111 27.7363 46.484C27.2222 46.9165 26.8161 46.9322 26.1738 46.9265C26.0341 46.927 26.0341 46.927 25.8915 46.9276C25.6952 46.9279 25.4989 46.9272 25.3026 46.9255C25.0029 46.9234 24.7035 46.9255 24.4038 46.928C24.2126 46.9277 24.0213 46.9272 23.8301 46.9265C23.6964 46.9277 23.6964 46.9277 23.56 46.9289C23.0149 46.9209 22.6997 46.8475 22.2676 46.484C21.9132 46.111 21.8467 45.8118 21.8281 45.3121C21.8467 44.8124 21.9132 44.5132 22.2676 44.1402C22.7817 43.7077 23.1878 43.692 23.8301 43.6977Z" fill="#181818"/>
<path d="M14.4551 43.6977C14.5482 43.6973 14.6414 43.697 14.7374 43.6966C14.9337 43.6963 15.13 43.697 15.3264 43.6987C15.626 43.7008 15.9254 43.6987 16.2251 43.6962C16.4163 43.6964 16.6076 43.6969 16.7988 43.6977C16.9325 43.6965 16.9325 43.6965 17.0689 43.6953C17.614 43.7033 17.9292 43.7766 18.3613 44.1402C18.7157 44.5132 18.7822 44.8124 18.8008 45.3121C18.7822 45.8118 18.7157 46.111 18.3613 46.484C17.8472 46.9165 17.4411 46.9322 16.7988 46.9265C16.6591 46.927 16.6591 46.927 16.5165 46.9276C16.3202 46.9279 16.1239 46.9272 15.9276 46.9255C15.6279 46.9234 15.3285 46.9255 15.0288 46.928C14.8376 46.9277 14.6463 46.9272 14.4551 46.9265C14.3214 46.9277 14.3214 46.9277 14.185 46.9289C13.6399 46.9209 13.3247 46.8475 12.8926 46.484C12.5382 46.111 12.4717 45.8118 12.4531 45.3121C12.4717 44.8124 12.5382 44.5132 12.8926 44.1402C13.4067 43.7077 13.8128 43.692 14.4551 43.6977Z" fill="#181818"/>
<path d="M45.898 31.2512C46.383 31.4763 46.6226 31.761 46.8746 32.2277C46.9303 32.5537 46.9294 32.8742 46.9265 33.2043C46.9268 33.2975 46.9272 33.3906 46.9276 33.4866C46.9279 33.6829 46.9272 33.8793 46.9255 34.0756C46.9234 34.3752 46.9255 34.6747 46.928 34.9743C46.9277 35.1656 46.9272 35.3568 46.9265 35.5481C46.9273 35.6372 46.928 35.7263 46.9289 35.8181C46.9209 36.3632 46.8475 36.6784 46.484 37.1106C46.111 37.4649 45.8118 37.5315 45.3121 37.55C44.8124 37.5315 44.5132 37.4649 44.1402 37.1106C43.7077 36.5965 43.692 36.1904 43.6977 35.5481C43.6973 35.4549 43.697 35.3617 43.6966 35.2658C43.6963 35.0694 43.697 34.8731 43.6987 34.6768C43.7008 34.3771 43.6987 34.0777 43.6962 33.778C43.6964 33.5868 43.6969 33.3955 43.6977 33.2043C43.6969 33.1152 43.6961 33.0261 43.6953 32.9342C43.7033 32.3891 43.7766 32.074 44.1402 31.6418C44.655 31.1528 45.225 31.1606 45.898 31.2512Z" fill="#181818"/>
<path d="M5.27303 31.2512C5.75798 31.4763 5.99761 31.761 6.24959 32.2277C6.30535 32.5537 6.3044 32.8742 6.30147 33.2043C6.30184 33.2975 6.30222 33.3906 6.3026 33.4866C6.30287 33.6829 6.30215 33.8793 6.30051 34.0756C6.29842 34.3752 6.3005 34.6747 6.30299 34.9743C6.30274 35.1656 6.30224 35.3568 6.30147 35.5481C6.30226 35.6372 6.30305 35.7263 6.30386 35.8181C6.29588 36.3632 6.22255 36.6784 5.85896 37.1106C5.48598 37.4649 5.18682 37.5315 4.68709 37.55C4.18736 37.5315 3.88819 37.4649 3.51521 37.1106C3.08269 36.5965 3.06701 36.1904 3.07271 35.5481C3.07233 35.4549 3.07196 35.3617 3.07158 35.2658C3.07131 35.0694 3.07203 34.8731 3.07366 34.6768C3.07575 34.3771 3.07368 34.0777 3.07118 33.778C3.07144 33.5868 3.07194 33.3955 3.07271 33.2043C3.07192 33.1152 3.07113 33.0261 3.07031 32.9342C3.07829 32.3891 3.15163 32.074 3.51521 31.6418C4.02999 31.1528 4.59999 31.1606 5.27303 31.2512Z" fill="#181818"/>
<path d="M45.898 21.8762C46.383 22.1013 46.6226 22.386 46.8746 22.8527C46.9303 23.1787 46.9294 23.4992 46.9265 23.8293C46.9268 23.9225 46.9272 24.0156 46.9276 24.1116C46.9279 24.3079 46.9272 24.5043 46.9255 24.7006C46.9234 25.0002 46.9255 25.2997 46.928 25.5993C46.9277 25.7906 46.9272 25.9818 46.9265 26.1731C46.9273 26.2622 46.928 26.3513 46.9289 26.4431C46.9209 26.9882 46.8475 27.3034 46.484 27.7356C46.111 28.0899 45.8118 28.1565 45.3121 28.175C44.8124 28.1565 44.5132 28.0899 44.1402 27.7356C43.7077 27.2215 43.692 26.8154 43.6977 26.1731C43.6973 26.0799 43.697 25.9867 43.6966 25.8908C43.6963 25.6944 43.697 25.4981 43.6987 25.3018C43.7008 25.0021 43.6987 24.7027 43.6962 24.403C43.6964 24.2118 43.6969 24.0205 43.6977 23.8293C43.6969 23.7402 43.6961 23.6511 43.6953 23.5592C43.7033 23.0141 43.7766 22.699 44.1402 22.2668C44.655 21.7778 45.225 21.7856 45.898 21.8762Z" fill="#181818"/>
<path d="M5.27303 21.8762C5.75798 22.1013 5.99761 22.386 6.24959 22.8527C6.30535 23.1787 6.3044 23.4992 6.30147 23.8293C6.30184 23.9225 6.30222 24.0156 6.3026 24.1116C6.30287 24.3079 6.30215 24.5043 6.30051 24.7006C6.29842 25.0002 6.3005 25.2997 6.30299 25.5993C6.30274 25.7906 6.30224 25.9818 6.30147 26.1731C6.30226 26.2622 6.30305 26.3513 6.30386 26.4431C6.29588 26.9882 6.22255 27.3034 5.85896 27.7356C5.48598 28.0899 5.18682 28.1565 4.68709 28.175C4.18736 28.1565 3.88819 28.0899 3.51521 27.7356C3.08269 27.2215 3.06701 26.8154 3.07271 26.1731C3.07233 26.0799 3.07196 25.9867 3.07158 25.8908C3.07131 25.6944 3.07203 25.4981 3.07366 25.3018C3.07575 25.0021 3.07368 24.7027 3.07118 24.403C3.07144 24.2118 3.07194 24.0205 3.07271 23.8293C3.07192 23.7402 3.07113 23.6511 3.07031 23.5592C3.07829 23.0141 3.15163 22.699 3.51521 22.2668C4.02999 21.7778 4.59999 21.7856 5.27303 21.8762Z" fill="#181818"/>
<path d="M45.898 12.5012C46.383 12.7263 46.6226 13.011 46.8746 13.4777C46.9303 13.8037 46.9294 14.1242 46.9265 14.4543C46.9268 14.5475 46.9272 14.6406 46.9276 14.7366C46.9279 14.9329 46.9272 15.1293 46.9255 15.3256C46.9234 15.6252 46.9255 15.9247 46.928 16.2243C46.9277 16.4156 46.9272 16.6068 46.9265 16.7981C46.9273 16.8872 46.928 16.9763 46.9289 17.0681C46.9209 17.6132 46.8475 17.9284 46.484 18.3606C46.111 18.7149 45.8118 18.7815 45.3121 18.8C44.8124 18.7815 44.5132 18.7149 44.1402 18.3606C43.7077 17.8465 43.692 17.4404 43.6977 16.7981C43.6973 16.7049 43.697 16.6117 43.6966 16.5158C43.6963 16.3194 43.697 16.1231 43.6987 15.9268C43.7008 15.6271 43.6987 15.3277 43.6962 15.028C43.6964 14.8368 43.6969 14.6455 43.6977 14.4543C43.6969 14.3652 43.6961 14.2761 43.6953 14.1842C43.7033 13.6391 43.7766 13.324 44.1402 12.8918C44.655 12.4028 45.225 12.4106 45.898 12.5012Z" fill="#181818"/>
<path d="M5.27303 12.5012C5.75798 12.7263 5.99761 13.011 6.24959 13.4777C6.30535 13.8037 6.3044 14.1242 6.30147 14.4543C6.30184 14.5475 6.30222 14.6406 6.3026 14.7366C6.30287 14.9329 6.30215 15.1293 6.30051 15.3256C6.29842 15.6252 6.3005 15.9247 6.30299 16.2243C6.30274 16.4156 6.30224 16.6068 6.30147 16.7981C6.30226 16.8872 6.30305 16.9763 6.30386 17.0681C6.29588 17.6132 6.22255 17.9284 5.85896 18.3606C5.48598 18.7149 5.18682 18.7815 4.68709 18.8C4.18736 18.7815 3.88819 18.7149 3.51521 18.3606C3.08269 17.8465 3.06701 17.4404 3.07271 16.7981C3.07233 16.7049 3.07196 16.6117 3.07158 16.5158C3.07131 16.3194 3.07203 16.1231 3.07366 15.9268C3.07575 15.6271 3.07368 15.3277 3.07118 15.028C3.07144 14.8368 3.07194 14.6455 3.07271 14.4543C3.07192 14.3652 3.07113 14.2761 3.07031 14.1842C3.07829 13.6391 3.15163 13.324 3.51521 12.8918C4.02999 12.4028 4.59999 12.4106 5.27303 12.5012Z" fill="#181818"/>
<path d="M33.2051 3.07271C33.2982 3.07233 33.3914 3.07196 33.4874 3.07158C33.6837 3.07131 33.88 3.07203 34.0764 3.07366C34.376 3.07575 34.6754 3.07368 34.9751 3.07118C35.1663 3.07144 35.3576 3.07194 35.5488 3.07271C35.6825 3.07152 35.6825 3.07152 35.8189 3.07031C36.364 3.07829 36.6792 3.15163 37.1113 3.51521C37.4657 3.88819 37.5322 4.18736 37.5508 4.68709C37.5322 5.18682 37.4657 5.48598 37.1113 5.85896C36.5972 6.29148 36.1911 6.30717 35.5488 6.30147C35.4091 6.30203 35.4091 6.30203 35.2665 6.3026C35.0702 6.30287 34.8739 6.30215 34.6776 6.30051C34.3779 6.29842 34.0785 6.3005 33.7788 6.30299C33.5876 6.30274 33.3963 6.30224 33.2051 6.30147C33.0714 6.30265 33.0714 6.30265 32.935 6.30386C32.3899 6.29588 32.0747 6.22255 31.6426 5.85896C31.2882 5.48598 31.2217 5.18682 31.2031 4.68709C31.2217 4.18736 31.2882 3.88819 31.6426 3.51521C32.1567 3.08269 32.5628 3.06701 33.2051 3.07271Z" fill="#181818"/>
<path d="M23.8301 3.07271C23.9232 3.07233 24.0164 3.07196 24.1124 3.07158C24.3087 3.07131 24.505 3.07203 24.7014 3.07366C25.001 3.07575 25.3004 3.07368 25.6001 3.07118C25.7913 3.07144 25.9826 3.07194 26.1738 3.07271C26.3075 3.07152 26.3075 3.07152 26.4439 3.07031C26.989 3.07829 27.3042 3.15163 27.7363 3.51521C28.0907 3.88819 28.1572 4.18736 28.1758 4.68709C28.1572 5.18682 28.0907 5.48598 27.7363 5.85896C27.2222 6.29148 26.8161 6.30717 26.1738 6.30147C26.0341 6.30203 26.0341 6.30203 25.8915 6.3026C25.6952 6.30287 25.4989 6.30215 25.3026 6.30051C25.0029 6.29842 24.7035 6.3005 24.4038 6.30299C24.2126 6.30274 24.0213 6.30224 23.8301 6.30147C23.6964 6.30265 23.6964 6.30265 23.56 6.30386C23.0149 6.29588 22.6997 6.22255 22.2676 5.85896C21.9132 5.48598 21.8467 5.18682 21.8281 4.68709C21.8467 4.18736 21.9132 3.88819 22.2676 3.51521C22.7817 3.08269 23.1878 3.06701 23.8301 3.07271Z" fill="#181818"/>
<path d="M14.4551 3.07271C14.5482 3.07233 14.6414 3.07196 14.7374 3.07158C14.9337 3.07131 15.13 3.07203 15.3264 3.07366C15.626 3.07575 15.9254 3.07368 16.2251 3.07118C16.4163 3.07144 16.6076 3.07194 16.7988 3.07271C16.9325 3.07152 16.9325 3.07152 17.0689 3.07031C17.614 3.07829 17.9292 3.15163 18.3613 3.51521C18.7157 3.88819 18.7822 4.18736 18.8008 4.68709C18.7822 5.18682 18.7157 5.48598 18.3613 5.85896C17.8472 6.29148 17.4411 6.30717 16.7988 6.30147C16.6591 6.30203 16.6591 6.30203 16.5165 6.3026C16.3202 6.30287 16.1239 6.30215 15.9276 6.30051C15.6279 6.29842 15.3285 6.3005 15.0288 6.30299C14.8376 6.30274 14.6463 6.30224 14.4551 6.30147C14.3214 6.30265 14.3214 6.30265 14.185 6.30386C13.6399 6.29588 13.3247 6.22255 12.8926 5.85896C12.5382 5.48598 12.4717 5.18682 12.4531 4.68709C12.4717 4.18736 12.5382 3.88819 12.8926 3.51521C13.4067 3.08269 13.8128 3.06701 14.4551 3.07271Z" fill="#181818"/>
</g>
<defs>
<clipPath id="clip0_8881_7006">
<rect width="50" height="50" fill="white"/>
</clipPath>
</defs>
</svg>
