<svg width="50" height="50" viewBox="0 0 50 50" fill="none" xmlns="http://www.w3.org/2000/svg">
<path d="M46 23.314V29.8721C46 31.4023 45.1169 32.6921 43.8462 33.3042V36.4302C43.8462 39.1628 42.0154 41.4581 39.5385 42.1795V42.9884C39.5385 46.3112 36.8892 49 33.6154 49H25C24.1169 49 23.3846 48.2567 23.3846 47.3605C23.3846 46.4642 24.1169 45.7209 25 45.7209H33.6154C35.1015 45.7209 36.3077 44.4967 36.3077 42.9884V42.4419H35.7692C33.7015 42.4419 32 40.7149 32 38.6163V27.686C32 25.5874 33.7015 23.8605 35.7692 23.8605H37.9231C39.9262 23.8605 41.6923 24.8879 42.7692 26.44V23.314C42.7692 13.3674 34.8 5.27907 25 5.27907C15.2 5.27907 7.23077 13.3674 7.23077 23.314V26.44C8.30769 24.8879 10.0738 23.8605 12.0769 23.8605H14.2308C16.2985 23.8605 18 25.5874 18 27.686V38.6163C18 40.7149 16.2985 42.4419 14.2308 42.4419H12.0769C8.80308 42.4419 6.15385 39.753 6.15385 36.4302V33.3042C4.88308 32.6921 4 31.3805 4 29.8721V23.314C4 11.553 13.4123 2 25 2C36.5877 2 46 11.553 46 23.314Z" fill="black"/>
</svg>
