<svg width="50" height="50" viewBox="0 0 50 50" fill="none" xmlns="http://www.w3.org/2000/svg">
<g clip-path="url(#clip0_8881_7045)">
<mask id="path-1-outside-1_8881_7045" maskUnits="userSpaceOnUse" x="0" y="0" width="50" height="50" fill="black">
<rect fill="white" width="50" height="50"/>
<path fill-rule="evenodd" clip-rule="evenodd" d="M27.9644 16.3806V21.3167C27.9644 21.9278 27.4692 22.4249 26.8559 22.4249C24.5433 22.4249 23.3819 25.2321 25.0161 26.8679C25.4867 27.3385 26.1367 27.6298 26.8559 27.6298C27.4672 27.6298 27.9644 28.1249 27.9644 28.738V33.6741H31.0003L32.2371 32.2949L33.3618 29.282C34.2114 27.0085 36.962 26.267 38.6086 27.6033C39.2362 28.1147 39.6539 28.8929 39.662 29.9298L39.6926 33.67H46.7875V29.7179C44.6379 29.2127 43.0771 27.2855 43.0771 25.0284C43.0771 22.7712 44.6379 20.844 46.7875 20.3388V16.3806L42.0115 16.3847C41.4003 16.3847 40.9051 15.8896 40.9051 15.2764C40.9051 12.9642 38.0974 11.801 36.4633 13.4369C35.9927 13.9075 35.6972 14.5573 35.6972 15.2764C35.6972 15.8856 35.2041 16.3806 34.5949 16.3806L27.9644 16.3806ZM22.9765 2.10415C22.9765 1.49502 23.4696 1 24.0808 1C24.6901 1 25.1831 1.49299 25.1831 2.10415L25.1648 11.4059C25.1628 12.4021 24.9325 13.329 24.4557 14.1724H33.6126C34.1179 12.0232 36.0434 10.4586 38.303 10.4586C40.5626 10.4586 42.488 12.0232 42.9913 14.1724H47.8936C48.5008 14.1724 49 14.6654 49 15.2765V21.3167C49 21.9279 48.5049 22.4249 47.8936 22.4249C45.583 22.4249 44.4176 25.2322 46.0517 26.868C46.5244 27.3386 47.1744 27.6299 47.8936 27.6299C48.5049 27.6299 49 28.1249 49 28.7381V34.7783C49 35.3895 48.5049 35.8865 47.8936 35.8865H46.0048V36.2125C46.0048 38.4635 44.9901 40.0994 43.2745 41.8187L40.6318 44.4691C40.3323 44.7706 40.2671 45.1963 40.2631 45.6262L40.2447 47.9038C40.2366 48.5129 39.7414 49.0039 39.1302 48.9978C38.523 48.9937 38.0319 48.4946 38.0381 47.8855L38.0584 45.6079C38.0686 44.5832 38.3172 43.6624 39.065 42.9107L41.7097 40.2604C42.9892 38.9749 43.7981 37.8198 43.7981 36.2125V35.8866H39.7109L39.719 36.7911C39.7231 37.4002 39.2341 37.8973 38.6228 37.9034C38.0156 37.9074 37.5185 37.4185 37.5124 36.8094L37.4553 29.9504C37.4512 29.4778 37.2332 29.2211 36.8237 29.1641C36.245 29.0867 35.6603 29.4411 35.43 30.0563L34.2319 33.2649C34.1851 33.3912 34.1138 33.5093 34.02 33.6152L31.6544 36.2534C31.0452 36.9338 30.7559 37.6835 30.7538 38.5941L30.7355 47.8959C30.7355 48.505 30.2424 49 29.6311 49C29.0219 49 28.5288 48.507 28.5288 47.8959L28.5472 38.5941C28.5492 37.6203 28.7693 36.7138 29.2236 35.8847L19.1196 35.8887C18.5083 35.8887 18.0111 35.3937 18.0111 34.7805C18.0111 32.4683 15.2034 31.3051 13.5693 32.941C13.0987 33.4116 12.8073 34.0614 12.8073 34.7805C12.8073 35.3917 12.3122 35.8887 11.7009 35.8887H5.81877C5.2075 35.8887 4.71035 35.3937 4.71035 34.7805V29.7202C2.56279 29.215 1 27.2878 1 25.0306C1 22.7735 2.56279 20.8463 4.71035 20.3411V15.2808C4.71035 14.6696 5.20547 14.1725 5.81877 14.1725H7.70553V13.7895C7.70553 11.5385 8.72225 9.90264 10.4379 8.18325L13.0805 5.53291C13.3801 5.23141 13.4432 4.80566 13.4473 4.37578L13.4677 2.09821C13.4738 1.48908 13.9709 0.998129 14.5802 1.00423C15.1894 1.0083 15.6804 1.50741 15.6743 2.11652L15.654 4.39408C15.6438 5.41875 15.3952 6.33959 14.6454 7.09131L12.0027 9.74165C10.7211 11.0271 9.91017 12.1822 9.91017 13.7895V14.1725H13.9995L13.9913 13.2109C13.9852 12.6018 14.4763 12.1047 15.0855 12.0986C15.6947 12.0946 16.1919 12.5835 16.198 13.1926L16.255 20.0516C16.2591 20.5262 16.4771 20.7809 16.8867 20.8379C17.4653 20.9153 18.0501 20.5609 18.2803 19.9457L19.4784 16.7371C19.5253 16.6108 19.5966 16.4927 19.6903 16.3867L22.0559 13.7486C22.6652 13.0682 22.9545 12.3185 22.9565 11.4079L22.9749 2.10614L22.9765 2.10415ZM22.6607 16.3806H25.7496V20.3388C23.602 20.8441 22.0392 22.7712 22.0392 25.0284C22.0392 27.2856 23.602 29.2127 25.7496 29.718V33.6741H20.1016C19.5963 31.5249 17.6708 29.9604 15.4112 29.9604C13.1516 29.9604 11.2261 31.5229 10.7208 33.6701H6.92694V28.7381C6.92694 28.1269 6.43181 27.6299 5.82055 27.6299C5.10131 27.6299 4.45133 27.3386 3.98068 26.868C2.34659 25.2322 3.51002 22.4249 5.82055 22.4249C6.43182 22.4249 6.92694 21.9299 6.92694 21.3167V16.3848H14.0218L14.0524 20.068C14.0606 21.1029 14.4783 21.8811 15.1078 22.3944C16.7521 23.7308 19.5028 22.9892 20.3526 20.7137L21.4773 17.7007L22.6631 16.3807L22.6607 16.3806Z"/>
</mask>
<path fill-rule="evenodd" clip-rule="evenodd" d="M27.9644 16.3806V21.3167C27.9644 21.9278 27.4692 22.4249 26.8559 22.4249C24.5433 22.4249 23.3819 25.2321 25.0161 26.8679C25.4867 27.3385 26.1367 27.6298 26.8559 27.6298C27.4672 27.6298 27.9644 28.1249 27.9644 28.738V33.6741H31.0003L32.2371 32.2949L33.3618 29.282C34.2114 27.0085 36.962 26.267 38.6086 27.6033C39.2362 28.1147 39.6539 28.8929 39.662 29.9298L39.6926 33.67H46.7875V29.7179C44.6379 29.2127 43.0771 27.2855 43.0771 25.0284C43.0771 22.7712 44.6379 20.844 46.7875 20.3388V16.3806L42.0115 16.3847C41.4003 16.3847 40.9051 15.8896 40.9051 15.2764C40.9051 12.9642 38.0974 11.801 36.4633 13.4369C35.9927 13.9075 35.6972 14.5573 35.6972 15.2764C35.6972 15.8856 35.2041 16.3806 34.5949 16.3806L27.9644 16.3806ZM22.9765 2.10415C22.9765 1.49502 23.4696 1 24.0808 1C24.6901 1 25.1831 1.49299 25.1831 2.10415L25.1648 11.4059C25.1628 12.4021 24.9325 13.329 24.4557 14.1724H33.6126C34.1179 12.0232 36.0434 10.4586 38.303 10.4586C40.5626 10.4586 42.488 12.0232 42.9913 14.1724H47.8936C48.5008 14.1724 49 14.6654 49 15.2765V21.3167C49 21.9279 48.5049 22.4249 47.8936 22.4249C45.583 22.4249 44.4176 25.2322 46.0517 26.868C46.5244 27.3386 47.1744 27.6299 47.8936 27.6299C48.5049 27.6299 49 28.1249 49 28.7381V34.7783C49 35.3895 48.5049 35.8865 47.8936 35.8865H46.0048V36.2125C46.0048 38.4635 44.9901 40.0994 43.2745 41.8187L40.6318 44.4691C40.3323 44.7706 40.2671 45.1963 40.2631 45.6262L40.2447 47.9038C40.2366 48.5129 39.7414 49.0039 39.1302 48.9978C38.523 48.9937 38.0319 48.4946 38.0381 47.8855L38.0584 45.6079C38.0686 44.5832 38.3172 43.6624 39.065 42.9107L41.7097 40.2604C42.9892 38.9749 43.7981 37.8198 43.7981 36.2125V35.8866H39.7109L39.719 36.7911C39.7231 37.4002 39.2341 37.8973 38.6228 37.9034C38.0156 37.9074 37.5185 37.4185 37.5124 36.8094L37.4553 29.9504C37.4512 29.4778 37.2332 29.2211 36.8237 29.1641C36.245 29.0867 35.6603 29.4411 35.43 30.0563L34.2319 33.2649C34.1851 33.3912 34.1138 33.5093 34.02 33.6152L31.6544 36.2534C31.0452 36.9338 30.7559 37.6835 30.7538 38.5941L30.7355 47.8959C30.7355 48.505 30.2424 49 29.6311 49C29.0219 49 28.5288 48.507 28.5288 47.8959L28.5472 38.5941C28.5492 37.6203 28.7693 36.7138 29.2236 35.8847L19.1196 35.8887C18.5083 35.8887 18.0111 35.3937 18.0111 34.7805C18.0111 32.4683 15.2034 31.3051 13.5693 32.941C13.0987 33.4116 12.8073 34.0614 12.8073 34.7805C12.8073 35.3917 12.3122 35.8887 11.7009 35.8887H5.81877C5.2075 35.8887 4.71035 35.3937 4.71035 34.7805V29.7202C2.56279 29.215 1 27.2878 1 25.0306C1 22.7735 2.56279 20.8463 4.71035 20.3411V15.2808C4.71035 14.6696 5.20547 14.1725 5.81877 14.1725H7.70553V13.7895C7.70553 11.5385 8.72225 9.90264 10.4379 8.18325L13.0805 5.53291C13.3801 5.23141 13.4432 4.80566 13.4473 4.37578L13.4677 2.09821C13.4738 1.48908 13.9709 0.998129 14.5802 1.00423C15.1894 1.0083 15.6804 1.50741 15.6743 2.11652L15.654 4.39408C15.6438 5.41875 15.3952 6.33959 14.6454 7.09131L12.0027 9.74165C10.7211 11.0271 9.91017 12.1822 9.91017 13.7895V14.1725H13.9995L13.9913 13.2109C13.9852 12.6018 14.4763 12.1047 15.0855 12.0986C15.6947 12.0946 16.1919 12.5835 16.198 13.1926L16.255 20.0516C16.2591 20.5262 16.4771 20.7809 16.8867 20.8379C17.4653 20.9153 18.0501 20.5609 18.2803 19.9457L19.4784 16.7371C19.5253 16.6108 19.5966 16.4927 19.6903 16.3867L22.0559 13.7486C22.6652 13.0682 22.9545 12.3185 22.9565 11.4079L22.9749 2.10614L22.9765 2.10415ZM22.6607 16.3806H25.7496V20.3388C23.602 20.8441 22.0392 22.7712 22.0392 25.0284C22.0392 27.2856 23.602 29.2127 25.7496 29.718V33.6741H20.1016C19.5963 31.5249 17.6708 29.9604 15.4112 29.9604C13.1516 29.9604 11.2261 31.5229 10.7208 33.6701H6.92694V28.7381C6.92694 28.1269 6.43181 27.6299 5.82055 27.6299C5.10131 27.6299 4.45133 27.3386 3.98068 26.868C2.34659 25.2322 3.51002 22.4249 5.82055 22.4249C6.43182 22.4249 6.92694 21.9299 6.92694 21.3167V16.3848H14.0218L14.0524 20.068C14.0606 21.1029 14.4783 21.8811 15.1078 22.3944C16.7521 23.7308 19.5028 22.9892 20.3526 20.7137L21.4773 17.7007L22.6631 16.3807L22.6607 16.3806Z" fill="black"/>
<path fill-rule="evenodd" clip-rule="evenodd" d="M27.9644 16.3806V21.3167C27.9644 21.9278 27.4692 22.4249 26.8559 22.4249C24.5433 22.4249 23.3819 25.2321 25.0161 26.8679C25.4867 27.3385 26.1367 27.6298 26.8559 27.6298C27.4672 27.6298 27.9644 28.1249 27.9644 28.738V33.6741H31.0003L32.2371 32.2949L33.3618 29.282C34.2114 27.0085 36.962 26.267 38.6086 27.6033C39.2362 28.1147 39.6539 28.8929 39.662 29.9298L39.6926 33.67H46.7875V29.7179C44.6379 29.2127 43.0771 27.2855 43.0771 25.0284C43.0771 22.7712 44.6379 20.844 46.7875 20.3388V16.3806L42.0115 16.3847C41.4003 16.3847 40.9051 15.8896 40.9051 15.2764C40.9051 12.9642 38.0974 11.801 36.4633 13.4369C35.9927 13.9075 35.6972 14.5573 35.6972 15.2764C35.6972 15.8856 35.2041 16.3806 34.5949 16.3806L27.9644 16.3806ZM22.9765 2.10415C22.9765 1.49502 23.4696 1 24.0808 1C24.6901 1 25.1831 1.49299 25.1831 2.10415L25.1648 11.4059C25.1628 12.4021 24.9325 13.329 24.4557 14.1724H33.6126C34.1179 12.0232 36.0434 10.4586 38.303 10.4586C40.5626 10.4586 42.488 12.0232 42.9913 14.1724H47.8936C48.5008 14.1724 49 14.6654 49 15.2765V21.3167C49 21.9279 48.5049 22.4249 47.8936 22.4249C45.583 22.4249 44.4176 25.2322 46.0517 26.868C46.5244 27.3386 47.1744 27.6299 47.8936 27.6299C48.5049 27.6299 49 28.1249 49 28.7381V34.7783C49 35.3895 48.5049 35.8865 47.8936 35.8865H46.0048V36.2125C46.0048 38.4635 44.9901 40.0994 43.2745 41.8187L40.6318 44.4691C40.3323 44.7706 40.2671 45.1963 40.2631 45.6262L40.2447 47.9038C40.2366 48.5129 39.7414 49.0039 39.1302 48.9978C38.523 48.9937 38.0319 48.4946 38.0381 47.8855L38.0584 45.6079C38.0686 44.5832 38.3172 43.6624 39.065 42.9107L41.7097 40.2604C42.9892 38.9749 43.7981 37.8198 43.7981 36.2125V35.8866H39.7109L39.719 36.7911C39.7231 37.4002 39.2341 37.8973 38.6228 37.9034C38.0156 37.9074 37.5185 37.4185 37.5124 36.8094L37.4553 29.9504C37.4512 29.4778 37.2332 29.2211 36.8237 29.1641C36.245 29.0867 35.6603 29.4411 35.43 30.0563L34.2319 33.2649C34.1851 33.3912 34.1138 33.5093 34.02 33.6152L31.6544 36.2534C31.0452 36.9338 30.7559 37.6835 30.7538 38.5941L30.7355 47.8959C30.7355 48.505 30.2424 49 29.6311 49C29.0219 49 28.5288 48.507 28.5288 47.8959L28.5472 38.5941C28.5492 37.6203 28.7693 36.7138 29.2236 35.8847L19.1196 35.8887C18.5083 35.8887 18.0111 35.3937 18.0111 34.7805C18.0111 32.4683 15.2034 31.3051 13.5693 32.941C13.0987 33.4116 12.8073 34.0614 12.8073 34.7805C12.8073 35.3917 12.3122 35.8887 11.7009 35.8887H5.81877C5.2075 35.8887 4.71035 35.3937 4.71035 34.7805V29.7202C2.56279 29.215 1 27.2878 1 25.0306C1 22.7735 2.56279 20.8463 4.71035 20.3411V15.2808C4.71035 14.6696 5.20547 14.1725 5.81877 14.1725H7.70553V13.7895C7.70553 11.5385 8.72225 9.90264 10.4379 8.18325L13.0805 5.53291C13.3801 5.23141 13.4432 4.80566 13.4473 4.37578L13.4677 2.09821C13.4738 1.48908 13.9709 0.998129 14.5802 1.00423C15.1894 1.0083 15.6804 1.50741 15.6743 2.11652L15.654 4.39408C15.6438 5.41875 15.3952 6.33959 14.6454 7.09131L12.0027 9.74165C10.7211 11.0271 9.91017 12.1822 9.91017 13.7895V14.1725H13.9995L13.9913 13.2109C13.9852 12.6018 14.4763 12.1047 15.0855 12.0986C15.6947 12.0946 16.1919 12.5835 16.198 13.1926L16.255 20.0516C16.2591 20.5262 16.4771 20.7809 16.8867 20.8379C17.4653 20.9153 18.0501 20.5609 18.2803 19.9457L19.4784 16.7371C19.5253 16.6108 19.5966 16.4927 19.6903 16.3867L22.0559 13.7486C22.6652 13.0682 22.9545 12.3185 22.9565 11.4079L22.9749 2.10614L22.9765 2.10415ZM22.6607 16.3806H25.7496V20.3388C23.602 20.8441 22.0392 22.7712 22.0392 25.0284C22.0392 27.2856 23.602 29.2127 25.7496 29.718V33.6741H20.1016C19.5963 31.5249 17.6708 29.9604 15.4112 29.9604C13.1516 29.9604 11.2261 31.5229 10.7208 33.6701H6.92694V28.7381C6.92694 28.1269 6.43181 27.6299 5.82055 27.6299C5.10131 27.6299 4.45133 27.3386 3.98068 26.868C2.34659 25.2322 3.51002 22.4249 5.82055 22.4249C6.43182 22.4249 6.92694 21.9299 6.92694 21.3167V16.3848H14.0218L14.0524 20.068C14.0606 21.1029 14.4783 21.8811 15.1078 22.3944C16.7521 23.7308 19.5028 22.9892 20.3526 20.7137L21.4773 17.7007L22.6631 16.3807L22.6607 16.3806Z" stroke="black" mask="url(#path-1-outside-1_8881_7045)"/>
</g>
<defs>
<clipPath id="clip0_8881_7045">
<rect width="50" height="50" fill="white"/>
</clipPath>
</defs>
</svg>
