<svg width="50" height="50" viewBox="0 0 50 50" fill="none" xmlns="http://www.w3.org/2000/svg">
<path d="M6.84842 3.0166C7.06602 3.01555 7.06602 3.01555 7.28802 3.01449C7.68992 3.01262 8.09178 3.01354 8.49369 3.01493C8.92741 3.01594 9.36113 3.01438 9.79485 3.01315C10.6442 3.01116 11.4936 3.01159 12.3429 3.01288C13.0332 3.01389 13.7235 3.01403 14.4138 3.01354C14.5611 3.01344 14.5611 3.01344 14.7114 3.01334C14.911 3.01319 15.1106 3.01305 15.3101 3.0129C17.1815 3.01162 19.0529 3.01309 20.9243 3.0155C22.5301 3.01749 24.1359 3.01715 25.7417 3.01508C27.6064 3.01269 29.4711 3.01175 31.3357 3.01312C31.5346 3.01326 31.7334 3.0134 31.9322 3.01354C32.0301 3.01361 32.1279 3.01368 32.2287 3.01375C32.9181 3.01414 33.6076 3.01349 34.2971 3.01243C35.1373 3.01118 35.9775 3.01152 36.8177 3.0139C37.2464 3.01508 37.6751 3.01554 38.1038 3.01406C38.5684 3.01248 39.0329 3.01436 39.4976 3.0166C39.6332 3.0156 39.7689 3.0146 39.9087 3.01358C40.622 3.02026 41.0661 3.0437 41.6054 3.52081C42.0277 3.99311 42.075 4.38584 42.0786 5.00226C42.0802 5.22176 42.0802 5.22176 42.0819 5.44569C42.0826 5.60822 42.0833 5.77075 42.0839 5.93328C42.085 6.10413 42.0862 6.27498 42.0873 6.44583C42.0904 6.91006 42.0928 7.37429 42.0951 7.83852C42.0976 8.32352 42.1007 8.80851 42.1037 9.29351C42.1094 10.2121 42.1145 11.1307 42.1194 12.0493C42.125 13.095 42.1313 14.1407 42.1376 15.1864C42.1506 17.3377 42.1627 19.489 42.1743 21.6403C42.3603 21.7154 42.3603 21.7154 42.55 21.7921C43.0127 21.9799 43.4743 22.1704 43.9355 22.3619C44.1347 22.4441 44.3342 22.5255 44.5341 22.6062C44.8225 22.7228 45.1096 22.8421 45.3966 22.9619C45.4852 22.997 45.5738 23.0321 45.665 23.0683C46.3514 23.3598 46.8421 23.7709 47.1807 24.4365C47.4792 28.8091 46.1533 33.3951 44.2224 37.2991C44.1659 37.4136 44.1659 37.4136 44.1082 37.5305C42.3306 41.0823 39.3596 44.345 35.725 46.113C35.4557 46.2454 35.4557 46.2454 35.1887 46.4141C33.9227 47.1116 32.6162 47.0109 31.2034 47.0013C30.923 47.0019 30.6425 47.0027 30.362 47.0038C29.6824 47.0057 29.0029 47.0045 28.3233 47.0017C27.5311 46.9987 26.7389 46.999 25.9466 46.9995C24.5332 47.0002 23.1198 46.9976 21.7064 46.9932C20.336 46.989 18.9656 46.9874 17.5952 46.9887C16.1003 46.99 14.6054 46.99 13.1106 46.9874C12.9512 46.9872 12.7918 46.9869 12.6324 46.9866C12.554 46.9865 12.4756 46.9864 12.3948 46.9862C11.843 46.9853 11.2911 46.9854 10.7392 46.9859C9.99681 46.9864 9.25446 46.9845 8.51209 46.9809C8.23955 46.98 7.967 46.9798 7.69445 46.9804C7.32278 46.9811 6.95123 46.9791 6.57957 46.9764C6.47145 46.9772 6.36332 46.9781 6.25192 46.9789C5.61745 46.9706 5.23198 46.9034 4.74054 46.4706C4.35877 45.9887 4.2285 45.6785 4.22814 45.069C4.22696 44.9232 4.22577 44.7773 4.22455 44.6271C4.22553 44.466 4.22656 44.3049 4.22762 44.1438C4.2271 43.9721 4.22637 43.8003 4.22547 43.6286C4.22357 43.157 4.22451 42.6855 4.22592 42.2139C4.22695 41.7052 4.22536 41.1965 4.22411 40.6878C4.22208 39.6913 4.22252 38.6949 4.22384 37.6985C4.22487 36.8888 4.22501 36.079 4.22451 35.2693C4.22444 35.1541 4.22437 35.0389 4.2243 34.9202C4.22416 34.6862 4.22401 34.4522 4.22386 34.2182C4.22256 32.0234 4.22405 29.8285 4.2265 27.6337C4.22853 25.7499 4.22818 23.8661 4.22608 21.9824C4.22365 19.7954 4.22269 17.6085 4.22408 15.4216C4.22423 15.1884 4.22437 14.9553 4.22451 14.7221C4.22462 14.5501 4.22462 14.5501 4.22473 14.3745C4.22512 13.5656 4.22445 12.7568 4.22338 11.9479C4.22211 10.9623 4.22245 9.97676 4.22488 8.99118C4.22607 8.4882 4.22654 7.98525 4.22504 7.48227C4.22368 7.02195 4.22442 6.56168 4.22685 6.10136C4.22736 5.93473 4.2271 5.76809 4.22599 5.60146C4.22461 5.37511 4.2263 5.14875 4.22814 4.9224C4.22822 4.79663 4.22829 4.67085 4.22837 4.54126C4.31909 3.98568 4.61374 3.63919 5.02125 3.25872C5.6252 2.9803 6.18911 3.01175 6.84842 3.0166ZM7.81261 6.54072C7.81261 9.82571 7.81261 13.1107 7.81261 16.4952C11.1919 16.4952 14.5712 16.4952 18.0529 16.4952C18.0529 17.6394 18.0529 18.7837 18.0529 19.9625C14.6736 19.9625 11.2943 19.9625 7.81261 19.9625C7.81261 23.2844 7.81261 26.6063 7.81261 30.0289C11.2294 30.0289 14.6463 30.0289 18.1666 30.0289C18.1666 31.1731 18.1666 32.3173 18.1666 33.4962C14.7498 33.4962 11.333 33.4962 7.81261 33.4962C7.81261 36.7812 7.81261 40.0662 7.81261 43.4507C14.2708 43.4507 20.729 43.4507 27.3829 43.4507C26.8453 42.8291 26.8453 42.8291 26.2735 42.2623C22.0207 38.1215 20.1516 31.5509 19.7738 25.8416C19.7654 25.7382 19.757 25.6348 19.7484 25.5283C19.718 24.9684 19.7208 24.4621 20.0183 23.9704C20.4942 23.4736 21.1804 23.2459 21.8076 22.9825C22.0172 22.8925 22.2268 22.8026 22.4363 22.7126C23.1823 22.3946 23.9313 22.0837 24.6806 21.7731C25.2293 21.5451 25.7778 21.3168 26.3264 21.0885C26.4633 21.0315 26.6002 20.9746 26.7413 20.9159C27.6238 20.5484 28.5035 20.1753 29.3816 19.7978C29.6009 19.7039 29.8202 19.61 30.0395 19.5162C30.3473 19.3844 30.6548 19.2523 30.9617 19.1186C31.241 18.9971 31.521 18.8772 31.8012 18.7575C31.8809 18.7223 31.9607 18.687 32.0428 18.6506C32.7231 18.3633 33.3869 18.1975 34.1191 18.3714C34.2845 18.4417 34.2845 18.4417 34.4533 18.5133C34.5792 18.5654 34.7051 18.6175 34.8348 18.6712C34.9665 18.7282 35.0981 18.7853 35.2337 18.8441C35.4423 18.9307 35.6509 19.0174 35.8596 19.104C36.2112 19.2507 36.5616 19.4005 36.912 19.5501C37.1957 19.6711 37.4796 19.7918 37.7636 19.9123C37.887 19.965 38.0105 20.0176 38.1377 20.0719C38.3863 20.1933 38.3863 20.1933 38.5334 20.1862C38.5334 15.6832 38.5334 11.1802 38.5334 6.54072C28.3955 6.54072 18.2577 6.54072 7.81261 6.54072ZM32.507 22.1838C32.4277 22.2174 32.3485 22.251 32.2668 22.2856C32.0063 22.3962 31.7462 22.5076 31.4861 22.6189C31.305 22.6959 31.1239 22.7729 30.9428 22.8497C30.5755 23.0057 30.2084 23.1619 29.8414 23.3184C29.1104 23.63 28.3783 23.9391 27.646 24.2477C27.5189 24.3014 27.3919 24.355 27.261 24.4103C26.2505 24.8361 25.2362 25.2527 24.2192 25.6632C24.1128 25.7064 24.0065 25.7495 23.897 25.794C23.8035 25.8317 23.7099 25.8694 23.6136 25.9083C23.4036 25.9861 23.4036 25.9861 23.2868 26.1142C23.3041 27.0792 23.4605 28.0285 23.6494 28.9733C23.6744 29.0989 23.6993 29.2245 23.725 29.3538C23.9604 30.4984 24.2699 31.6082 24.6521 32.7133C24.6928 32.8312 24.6928 32.8312 24.7343 32.9514C25.5665 35.3226 26.7305 37.5192 28.4069 39.4242C28.5275 39.563 28.5275 39.563 28.6505 39.7047C29.8812 41.0879 31.513 42.5797 33.2995 43.227C33.8258 43.2048 34.2402 42.9321 34.6791 42.6678C34.7547 42.6223 34.8304 42.5768 34.9084 42.53C39.4511 39.7457 41.8632 34.8905 43.0561 29.9241C43.2515 29.0619 43.3885 28.1994 43.4988 27.3231C43.5139 27.206 43.5291 27.0889 43.5447 26.9682C43.5814 26.6836 43.6176 26.3989 43.6535 26.1142C41.9034 25.3664 40.153 24.6195 38.4021 23.8736C37.9187 23.6677 37.4354 23.4616 36.9522 23.2552C36.4784 23.0529 36.0044 22.8511 35.5301 22.6499C35.3615 22.5782 35.193 22.5063 35.0246 22.4343C34.7944 22.3358 34.5639 22.2381 34.3333 22.1405C34.2066 22.0866 34.0799 22.0327 33.9494 21.9772C33.3869 21.7708 33.0258 21.9601 32.507 22.1838Z" fill="#181818"/>
<path d="M34.2227 25.0117C34.6235 25.1038 34.9226 25.2011 35.2929 25.3771C35.4542 25.4535 35.4542 25.4535 35.6188 25.5314C35.7337 25.5865 35.8486 25.6417 35.967 25.6986C36.0856 25.7554 36.2043 25.8122 36.3266 25.8708C36.5769 25.9911 36.8271 26.1117 37.0772 26.2326C37.334 26.3566 37.5912 26.4795 37.8488 26.6015C38.2199 26.7774 38.59 26.9557 38.96 27.1346C39.0758 27.189 39.1915 27.2435 39.3108 27.2996C39.417 27.3516 39.5232 27.4036 39.6327 27.4572C39.7266 27.5023 39.8206 27.5474 39.9174 27.5939C40.131 27.7498 40.131 27.7498 40.2161 27.9887C40.2396 28.2894 40.197 28.5246 40.1342 28.818C40.1096 28.9338 40.085 29.0496 40.0596 29.1689C40.0319 29.2923 40.0041 29.4158 39.9755 29.543C39.9329 29.7344 39.9329 29.7344 39.8894 29.9296C39.0494 33.5971 37.5092 37.2779 34.8446 39.6546C34.6394 39.7724 34.4341 39.8903 34.2227 40.0117C34.2227 35.0617 34.2227 30.1117 34.2227 25.0117Z" fill="#181818"/>
<path d="M20.2227 9.01172C24.8427 9.01172 29.4627 9.01172 34.2227 9.01172C34.2227 10.6617 34.2227 12.3117 34.2227 14.0117C29.6027 14.0117 24.9827 14.0117 20.2227 14.0117C20.2227 12.3617 20.2227 10.7117 20.2227 9.01172Z" fill="#181818"/>
<path d="M16.4703 36.2546C16.8415 36.6718 17.0543 37.0899 17.196 37.7983C17.2562 38.647 17.2315 39.3552 16.943 40.0782C16.6647 40.6079 16.3657 40.8851 15.9493 41.0043C15.5119 41.0428 15.1583 40.939 14.7897 40.5348C14.4278 39.9768 14.2909 39.3029 14.2227 38.5062C14.2909 37.7096 14.4278 37.0356 14.7897 36.4777C15.3212 35.8947 15.8847 35.9047 16.4703 36.2546Z" fill="#181818"/>
<path d="M16.5061 9.32896C16.8524 9.71117 17.0585 10.1605 17.1887 10.8162C17.2712 11.7096 17.2134 12.4183 16.9038 13.1801C16.4597 13.8617 16.1026 14.028 15.5124 14.0105C15.1498 13.9414 14.8928 13.7491 14.6247 13.3377C14.2986 12.5997 14.1659 11.8903 14.2448 10.9738C14.3786 10.2765 14.5531 9.72785 14.9274 9.31911C15.4439 8.90798 15.9924 8.90727 16.5061 9.32896Z" fill="#181818"/>
<path d="M16.5296 23.2421C16.8536 23.6138 17.1714 24.0661 17.2197 24.6459C17.2357 25.3805 17.1992 25.8094 16.8156 26.3834C16.455 26.8588 16.1824 27.0005 15.6717 27.0117C15.2092 26.9028 14.8397 26.7344 14.5277 26.2578C14.237 25.6829 14.188 25.177 14.2417 24.4986C14.4051 23.9091 14.6029 23.5788 15.0044 23.2421C15.5403 22.9432 16.0003 22.9268 16.5296 23.2421Z" fill="#181818"/>
</svg>
