<svg width="18" height="18" viewBox="0 0 18 18" fill="none" xmlns="http://www.w3.org/2000/svg">
<g clip-path="url(#clip0_9043_343)">
<path d="M17.6491 0.000261529C17.8213 0.0801758 17.9231 0.17865 18.0007 0.351824C18.0402 0.761784 17.962 1.17172 17.9006 1.5756C17.8897 1.64872 17.8789 1.72186 17.8681 1.79499C17.8387 1.99386 17.8088 2.19266 17.7788 2.39145C17.7469 2.60388 17.7153 2.81638 17.6838 3.02887C17.6262 3.4157 17.5684 3.80248 17.5103 4.18924C17.4573 4.54288 17.4043 4.89655 17.3515 5.25023C17.348 5.27359 17.3446 5.29696 17.341 5.32103C17.3233 5.43917 17.3057 5.55732 17.2881 5.67546C17.2527 5.91205 17.2174 6.14864 17.1821 6.38523C17.1786 6.40863 17.1751 6.43203 17.1715 6.45615C17.122 6.78737 17.0725 7.11857 17.0229 7.44977C16.8665 8.49448 16.711 9.53931 16.5576 10.5845C16.5239 10.8141 16.4901 11.0438 16.4563 11.2734C16.4517 11.3046 16.4471 11.3359 16.4424 11.368C16.4243 11.4908 16.4061 11.6136 16.388 11.7363C16.3368 12.0834 16.2859 12.4306 16.2354 12.7778C16.2044 12.9904 16.1731 13.203 16.1415 13.4155C16.1237 13.5353 16.106 13.6552 16.0888 13.7751C16.0704 13.9027 16.0514 14.0302 16.0323 14.1577C16.0246 14.2126 16.0246 14.2126 16.0168 14.2686C15.9778 14.5222 15.921 14.7411 15.7309 14.9219C15.568 15.0263 15.4114 15.0344 15.2234 15.012C15.0368 14.9634 14.8559 14.8998 14.674 14.8362C14.6187 14.8172 14.5632 14.7983 14.5078 14.7794C14.388 14.7384 14.2682 14.6972 14.1485 14.6558C13.9526 14.5882 13.7564 14.5217 13.5602 14.4554C12.8792 14.225 12.1994 13.9912 11.5212 13.7529C11.0656 13.5931 10.6088 13.4372 10.1514 13.2829C10.1229 13.2733 10.0944 13.2636 10.0651 13.2537C9.77688 13.1565 9.48865 13.0595 9.20033 12.9627C8.56859 12.7505 7.93882 12.5347 7.31321 12.3049C7.35895 12.2109 7.40365 12.1339 7.47278 12.0553C7.49014 12.0353 7.5075 12.0154 7.52539 11.9949C7.54383 11.9739 7.56227 11.953 7.58127 11.9314C7.7063 11.7877 7.8301 11.6437 7.94822 11.4942C8.07142 11.3382 8.19918 11.1867 8.32794 11.0353C8.45689 10.8836 8.5831 10.7298 8.70875 10.5753C8.79752 10.4674 8.88803 10.3611 8.97874 10.2549C9.11173 10.0989 9.23996 9.94013 9.36545 9.77809C9.52209 9.57611 9.68666 9.38238 9.855 9.19008C9.99265 9.03274 10.1261 8.87256 10.2577 8.71009C10.3479 8.59984 10.4399 8.49129 10.5322 8.38283C10.6449 8.25035 10.756 8.11705 10.864 7.98073C10.9881 7.8242 11.1165 7.67182 11.2459 7.51972C11.3749 7.36797 11.5011 7.21416 11.6267 7.05966C11.7155 6.95179 11.806 6.84552 11.8967 6.73928C12.0297 6.58332 12.1579 6.4245 12.2834 6.26247C12.4401 6.06049 12.6046 5.86675 12.773 5.67446C12.9106 5.51711 13.0441 5.35694 13.1757 5.19446C13.2658 5.08421 13.3579 4.97566 13.4502 4.8672C13.5628 4.73473 13.6739 4.60142 13.782 4.46511C13.89 4.32879 14.0011 4.19549 14.1137 4.06301C14.4158 3.7375 14.4158 3.7375 14.6609 3.37526C14.3959 3.58844 14.1378 3.80844 13.8814 4.03169C13.7543 4.14235 13.6265 4.25225 13.4985 4.36183C13.4784 4.37909 13.4582 4.39635 13.4374 4.41413C13.3968 4.44889 13.3562 4.48365 13.3156 4.51841C13.2132 4.60605 13.1108 4.69378 13.0085 4.78151C12.9675 4.81667 12.9265 4.85182 12.8855 4.88698C12.8652 4.90438 12.8449 4.92179 12.824 4.93971C12.7624 4.99245 12.7009 5.04518 12.6394 5.09792C12.6191 5.11533 12.5988 5.13274 12.5778 5.15068C12.5369 5.18575 12.496 5.22082 12.455 5.25589C12.3511 5.34496 12.2472 5.43413 12.1435 5.5235C11.956 5.68489 11.7681 5.84526 11.5759 6.00099C11.4221 6.1258 11.2751 6.25651 11.1288 6.38991C11.0054 6.49957 10.8769 6.60252 10.7486 6.70632C10.6558 6.78313 10.5663 6.86247 10.4773 6.94362C10.3606 7.04989 10.2418 7.15193 10.1191 7.25124C9.89272 7.43458 9.67379 7.62612 9.4541 7.81738C9.34951 7.90818 9.24436 7.99833 9.13914 8.0884C9.11898 8.10565 9.09882 8.12291 9.07805 8.14069C9.03744 8.17546 8.99682 8.21021 8.9562 8.24497C8.85379 8.33261 8.75147 8.42035 8.64915 8.50807C8.60813 8.54323 8.56711 8.57839 8.5261 8.61354C8.5058 8.63095 8.48549 8.64835 8.46458 8.66628C8.40305 8.71901 8.34153 8.77175 8.28 8.82448C8.24955 8.85059 8.24955 8.85059 8.21847 8.87722C8.17749 8.91235 8.1365 8.94748 8.09551 8.98261C7.9925 9.07089 7.88951 9.15921 7.78658 9.24759C7.56962 9.43383 7.35209 9.61937 7.13363 9.80386C6.93205 9.97423 6.73179 10.1461 6.53155 10.3181C6.40846 10.4237 6.28528 10.5293 6.16208 10.6348C6.03699 10.742 5.91206 10.8493 5.78732 10.9569C5.74585 10.9925 5.70424 11.0279 5.66247 11.0632C5.56587 11.1447 5.47188 11.2269 5.38181 11.3156C5.34991 11.3455 5.318 11.3755 5.28513 11.4063C5.25817 11.4331 5.2312 11.4598 5.20342 11.4874C5.08009 11.5392 5.05207 11.5276 4.92728 11.4911C4.89271 11.481 4.85814 11.4709 4.82252 11.4605C4.63072 11.4009 4.44033 11.3376 4.25022 11.2728C4.20645 11.258 4.16269 11.2431 4.11759 11.2279C4 11.1881 3.88246 11.1481 3.76493 11.1081C3.69174 11.0831 3.61854 11.0583 3.54533 11.0334C2.78333 10.7747 2.0221 10.5138 1.26336 10.2457C1.11935 10.1949 0.975076 10.145 0.830348 10.0963C0.798639 10.0855 0.766931 10.0747 0.734261 10.0635C0.673545 10.0429 0.612749 10.0225 0.55186 10.0023C0.350748 9.93352 0.175174 9.86253 0.0412202 9.69007C-0.0321807 9.52311 -0.021089 9.35454 0.000708142 9.17604C0.124698 8.91888 0.350182 8.80011 0.595343 8.67699C0.622159 8.66331 0.648976 8.64964 0.676604 8.63555C0.763228 8.59141 0.849986 8.54755 0.936743 8.50368C1.0263 8.45811 1.11582 8.41246 1.20534 8.36681C1.26387 8.33698 1.3224 8.30716 1.38095 8.27737C1.58087 8.17562 1.78007 8.07265 1.97825 7.96755C2.22665 7.83597 2.47583 7.70595 2.72532 7.57643C2.98205 7.44313 3.23854 7.3094 3.49436 7.17433C3.80582 7.00992 4.11856 6.848 4.43132 6.68608C4.6877 6.55327 4.94356 6.41952 5.19889 6.28472C5.46649 6.14356 5.73503 6.00424 6.00353 5.86482C6.22219 5.75121 6.44052 5.63704 6.65842 5.52199C6.96989 5.35758 7.28262 5.19566 7.59539 5.03373C7.85176 4.90092 8.10762 4.76718 8.36295 4.63237C8.63055 4.49122 8.89909 4.35189 9.1676 4.21247C9.38625 4.09887 9.60459 3.98469 9.82249 3.86965C10.1339 3.70523 10.4467 3.54331 10.7594 3.38139C11.0158 3.24858 11.2717 3.11484 11.527 2.98003C11.7946 2.83887 12.0632 2.69955 12.3317 2.56013C12.5503 2.44653 12.7686 2.33235 12.9865 2.2173C13.298 2.05289 13.6107 1.89097 13.9235 1.72905C14.1799 1.59623 14.4357 1.46249 14.6911 1.32768C14.9208 1.20653 15.1511 1.08672 15.3816 0.967058C15.6156 0.845528 15.8496 0.723938 16.0828 0.600991C16.1364 0.572786 16.19 0.544689 16.2437 0.516705C16.3905 0.440022 16.5355 0.361035 16.6795 0.279314C17.3317 -0.0859134 17.3317 -0.0859134 17.6491 0.000261529Z" fill="white"/>
<path d="M6.53977 13.1839C6.79331 13.2503 7.04208 13.325 7.28986 13.4103C7.33998 13.4274 7.33998 13.4274 7.39112 13.4448C7.49849 13.4815 7.6058 13.5183 7.71311 13.5552C7.78711 13.5805 7.86112 13.6059 7.93512 13.6312C8.04575 13.6691 8.15637 13.707 8.26697 13.745C8.45644 13.81 8.646 13.8747 8.83584 13.9386C8.90962 13.9635 8.98337 13.9885 9.0571 14.0135C9.14354 14.0427 9.23004 14.0718 9.31662 14.1007C9.35403 14.1135 9.39145 14.1262 9.43 14.1394C9.46201 14.1502 9.49402 14.161 9.52701 14.1721C9.59836 14.2034 9.59836 14.2034 9.63352 14.2737C9.37783 14.6348 9.11661 14.9917 8.85356 15.3475C8.77054 15.4599 8.68768 15.5723 8.60483 15.6848C8.56414 15.7401 8.52344 15.7953 8.48273 15.8505C8.37698 15.994 8.27135 16.1375 8.16588 16.2812C8.13329 16.3255 8.13329 16.3255 8.10004 16.3708C8.05898 16.4266 8.01797 16.4825 7.97699 16.5385C7.49926 17.1882 7.49926 17.1882 7.27805 17.262C7.07775 17.2818 6.92199 17.272 6.75071 17.1565C6.543 16.9373 6.52959 16.7411 6.53179 16.4526C6.53178 16.4172 6.53177 16.3819 6.53176 16.3455C6.53181 16.2289 6.53235 16.1123 6.5329 15.9957C6.53304 15.9147 6.53314 15.8338 6.53321 15.7529C6.53347 15.54 6.53416 15.3271 6.53494 15.1143C6.53566 14.897 6.53598 14.6797 6.53634 14.4625C6.53709 14.0363 6.53829 13.6101 6.53977 13.1839Z" fill="white"/>
</g>
<defs>
<clipPath id="clip0_9043_343">
<rect width="18" height="18" fill="white"/>
</clipPath>
</defs>
</svg>
