<svg width="50" height="50" viewBox="0 0 50 50" fill="none" xmlns="http://www.w3.org/2000/svg">
<g clip-path="url(#clip0_8881_7000)">
<path d="M24.9679 -0.0506322C25.1208 -0.0499005 25.1208 -0.0499005 25.2768 -0.049154C27.0684 -0.00913273 28.4164 0.705397 29.6859 1.95132C29.7484 2.01137 29.8108 2.07142 29.8752 2.13328C30.9414 3.24478 31.4048 4.78079 31.3827 6.29092C31.3817 6.3894 31.3807 6.48788 31.3797 6.58935C31.3593 7.5676 31.1936 8.33561 30.7487 9.21031C30.696 9.31439 30.6433 9.41848 30.5889 9.52571C30.5488 9.60429 30.5086 9.68286 30.4672 9.76382C30.5611 9.76126 30.6551 9.75871 30.7518 9.75607C31.1066 9.74711 31.4613 9.74158 31.8161 9.737C31.9684 9.73457 32.1208 9.73126 32.2731 9.72698C33.8104 9.68498 34.9576 10.0099 36.0992 11.0902C37.0792 12.1283 37.2529 13.29 37.2322 14.6463C37.1887 15.8048 36.6023 16.7639 35.7712 17.5519C35.0419 18.1495 34.3293 18.4363 33.3969 18.5529C33.4291 19.1652 33.4613 19.7775 33.4945 20.4084C33.6637 20.3761 33.8329 20.3439 34.0072 20.3107C35.7388 20.0658 37.5538 20.0974 39.2563 20.506C39.2532 20.4 39.2532 20.4 39.2501 20.2919C39.2085 18.6302 39.1797 17.0576 39.9154 15.5316C40.2411 14.7746 40.4087 13.882 40.1352 13.0841C39.7696 12.5308 39.264 12.1024 38.7494 11.6911C38.3269 11.286 38.2448 10.9387 38.2315 10.3727C38.231 10.2456 38.231 10.2456 38.2305 10.1159C38.2295 10.0274 38.2285 9.93893 38.2275 9.84775C38.2261 9.66086 38.2254 9.47396 38.2254 9.28706C38.2248 9.00277 38.2195 8.71882 38.2139 8.43459C38.213 8.25244 38.2125 8.07029 38.2122 7.88813C38.2101 7.80398 38.208 7.71983 38.2058 7.63313C38.2131 6.97845 38.4287 6.62699 38.8656 6.15054C38.9383 6.06956 39.0109 5.98857 39.0858 5.90514C39.1532 5.83745 39.2207 5.76976 39.2902 5.70002C39.3654 5.62456 39.4406 5.54909 39.5181 5.47133C39.5949 5.39536 39.6716 5.31939 39.7506 5.24112C39.8663 5.12433 39.8663 5.12433 39.9843 5.00518C40.0594 4.93034 40.1345 4.8555 40.2118 4.77839C40.2792 4.71126 40.3466 4.64412 40.416 4.57495C41.0106 4.05269 41.4795 4.05535 42.2497 4.05742C42.3603 4.0569 42.4709 4.05639 42.5849 4.05586C42.8186 4.05524 43.0523 4.05537 43.286 4.0562C43.6431 4.05703 44 4.05422 44.3571 4.05112C44.5844 4.05096 44.8117 4.05102 45.039 4.05131C45.1455 4.05021 45.252 4.04912 45.3618 4.04799C45.9466 4.05334 46.3285 4.07511 46.7758 4.49038C46.9726 4.71515 47.1448 4.95122 47.314 5.19725C47.3624 5.26723 47.4107 5.33722 47.4605 5.40932C47.5622 5.55803 47.6632 5.70719 47.7635 5.85678C47.9142 6.079 48.07 6.2968 48.2263 6.51503C48.7631 7.29565 49.0873 7.97099 49.1773 8.91915C49.1997 9.11897 49.2222 9.31878 49.2448 9.51858C49.256 9.6227 49.2672 9.72683 49.2787 9.83411C49.3272 10.2639 49.3863 10.692 49.4451 11.1205C49.9856 15.1095 50.0987 19.0463 50.0698 23.067C50.0654 23.7156 50.0651 24.3642 50.0657 25.0129C50.0664 25.7263 50.0649 26.4396 50.0621 27.153C50.061 27.4521 50.0605 27.7511 50.0606 28.0502C50.0606 28.3981 50.0587 28.7459 50.0551 29.0938C50.0537 29.281 50.0541 29.4681 50.0546 29.6552C50.0462 30.275 50.0401 30.6872 49.6078 31.1505C49.3195 31.3397 49.3195 31.3397 48.9868 31.4977C48.9268 31.5262 48.8668 31.5547 48.805 31.5841C48.1693 31.8795 47.5147 32.1159 46.849 32.3346C46.7865 32.3553 46.7239 32.376 46.6594 32.3973C43.4472 33.4521 40.1579 33.6935 36.8149 33.299C36.8385 33.3482 36.8622 33.3975 36.8866 33.4483C36.9933 33.6709 37.0994 33.8939 37.2055 34.1168C37.2427 34.1944 37.28 34.2719 37.3184 34.3518C37.3536 34.4261 37.3889 34.5004 37.4252 34.5769C37.4579 34.6454 37.4907 34.714 37.5244 34.7846C37.5961 34.9591 37.5961 34.9591 37.5961 35.1544C37.6682 35.1688 37.7404 35.1831 37.8147 35.1979C39.3219 35.5312 40.4961 36.3324 41.3524 37.626C41.7441 38.3126 42.1036 39.0716 42.0978 39.874C42.0975 39.952 42.0972 40.0301 42.0969 40.1105C42.0961 40.1911 42.0952 40.2716 42.0944 40.3546C42.094 40.4367 42.0935 40.5188 42.0931 40.6034C42.0919 40.8053 42.0902 41.0072 42.0883 41.2091C42.1744 41.2202 42.2605 41.2313 42.3492 41.2427C43.5005 41.4697 44.523 42.4043 45.1832 43.3412C45.7305 44.2479 46.0244 45.137 46.0274 46.19C46.028 46.2722 46.0286 46.3543 46.0293 46.439C46.0303 46.6118 46.0308 46.7845 46.0307 46.9573C46.0312 47.2207 46.0347 47.484 46.0384 47.7473C46.039 47.9159 46.0394 48.0844 46.0396 48.253C46.041 48.3311 46.0424 48.4093 46.0438 48.4898C46.0396 49.0038 45.9525 49.3033 45.6039 49.7052C45.2078 50.0003 44.9179 50.0349 44.4288 50.0353C44.3605 50.0358 44.2922 50.0362 44.2218 50.0367C43.9923 50.0379 43.7629 50.037 43.5334 50.0361C43.3674 50.0365 43.2015 50.037 43.0355 50.0376C42.579 50.0391 42.1225 50.0386 41.666 50.0379C41.1739 50.0375 40.6817 50.0387 40.1896 50.0397C39.2252 50.0414 38.2609 50.0414 37.2966 50.0409C36.513 50.0405 35.7294 50.0407 34.9457 50.0412C34.8343 50.0413 34.7229 50.0413 34.6081 50.0414C34.3817 50.0416 34.1554 50.0417 33.929 50.0419C31.8052 50.0432 29.6815 50.0427 27.5577 50.0416C25.6137 50.0406 23.6698 50.0419 21.7258 50.0442C19.7309 50.0466 17.7359 50.0475 15.7409 50.0469C14.6204 50.0465 13.5 50.0467 12.3795 50.0484C11.4257 50.0499 10.4719 50.05 9.51813 50.0483C9.03131 50.0474 8.54451 50.0472 8.05769 50.0487C7.61222 50.05 7.1668 50.0496 6.72134 50.0477C6.56001 50.0473 6.39867 50.0476 6.23734 50.0486C6.0183 50.0499 5.79939 50.0488 5.58035 50.0471C5.45862 50.0471 5.33688 50.0471 5.21146 50.047C4.73109 49.976 4.42341 49.7609 4.11486 49.3915C3.96199 49.0216 3.95855 48.6735 3.96001 48.2797C3.9595 48.1986 3.95899 48.1175 3.95846 48.034C3.95783 47.8626 3.95796 47.6911 3.9588 47.5196C3.95962 47.2609 3.95683 47.0024 3.95372 46.7437C3.9468 45.0679 4.35844 43.7545 5.52022 42.5138C6.12946 41.9287 7.02344 41.2091 7.9086 41.2091C7.90407 41.0958 7.89954 40.9825 7.89487 40.8658C7.84876 39.2319 8.24166 37.8768 9.37955 36.6437C10.1723 35.9022 11.0952 35.4011 12.1734 35.2483C12.4282 35.1742 12.4282 35.1742 12.5114 34.895C12.5394 34.7873 12.5673 34.6795 12.5961 34.5685C12.695 34.3435 12.7968 34.1197 12.9013 33.8971C12.9539 33.7846 13.0065 33.672 13.0607 33.5561C13.1008 33.4712 13.1408 33.3864 13.182 33.299C13.0626 33.3131 12.9431 33.3272 12.82 33.3417C9.53168 33.712 6.29287 33.3747 3.14786 32.3346C2.97027 32.2763 2.97027 32.2763 2.78909 32.2167C2.18129 32.008 1.59023 31.7735 1.01011 31.4977C0.900303 31.4455 0.7905 31.3934 0.677369 31.3397C0.345603 31.122 0.145792 30.9306 -0.00155123 30.5646C-0.0617974 30.1484 -0.0599361 29.7348 -0.0598446 29.3148C-0.0612929 29.1882 -0.0627422 29.0616 -0.0642345 28.9312C-0.0680591 28.5828 -0.0693382 28.2344 -0.0700102 27.886C-0.0707994 27.5908 -0.0728217 27.2956 -0.0747755 27.0003C-0.0809052 26.0468 -0.0814428 25.0933 -0.0809327 24.1398C-0.0808969 23.8942 -0.0811234 23.6486 -0.0814453 23.403C-0.0865618 19.4214 -0.0689691 15.4607 0.425695 11.5033C0.435781 11.4223 0.445868 11.3413 0.45626 11.2578C0.87305 7.94419 0.873049 7.94419 1.56591 6.93026C1.61433 6.85823 1.66275 6.78619 1.71264 6.71197C1.81471 6.56067 1.91724 6.40967 2.02021 6.25897C2.17724 6.02871 2.33217 5.79713 2.48697 5.56536C2.58673 5.41803 2.6866 5.27078 2.78661 5.12362C2.83261 5.05465 2.87861 4.98568 2.926 4.91462C3.37899 4.25768 3.37899 4.25768 3.80704 4.09976C4.18421 4.05554 4.55863 4.05171 4.9381 4.05055C5.10336 4.04909 5.10336 4.04909 5.27195 4.04759C5.50482 4.04611 5.7377 4.04542 5.97057 4.04547C6.32556 4.04483 6.68029 4.03951 7.03523 4.03395C7.26189 4.03309 7.48854 4.03251 7.7152 4.03224C7.87347 4.02908 7.87347 4.02908 8.03494 4.02586C8.75688 4.03236 9.14659 4.18673 9.66642 4.6857C9.7474 4.75834 9.82838 4.83098 9.91182 4.90583C10.0134 5.00703 10.0134 5.00703 10.1169 5.11027C10.2301 5.2231 10.2301 5.2231 10.3456 5.3382C10.4216 5.41493 10.4976 5.49165 10.5758 5.57071C10.6926 5.68636 10.6926 5.68636 10.8118 5.80436C10.8866 5.87945 10.9615 5.95454 11.0386 6.0319C11.1057 6.09926 11.1728 6.16662 11.242 6.23601C11.7099 6.76877 11.7638 7.16068 11.7664 7.84922C11.7674 7.93772 11.7684 8.02621 11.7694 8.11739C11.7708 8.30428 11.7715 8.49119 11.7715 8.67809C11.7721 8.96237 11.7774 9.24632 11.783 9.53055C11.7839 9.7127 11.7844 9.89486 11.7847 10.077C11.7868 10.1612 11.7889 10.2453 11.7911 10.332C11.7839 10.9782 11.5753 11.351 11.1313 11.8146C10.967 11.9615 10.799 12.1012 10.628 12.2403C10.1928 12.6077 9.8505 12.9442 9.75911 13.5236C9.6925 14.5434 9.98721 15.4013 10.3763 16.3255C10.9103 17.6468 10.7701 19.1108 10.7406 20.506C10.8288 20.4849 10.9169 20.4637 11.0077 20.4419C12.7893 20.0536 14.7139 20.0677 16.5024 20.4084C16.5346 19.796 16.5668 19.1837 16.6 18.5529C16.3744 18.5207 16.1488 18.4884 15.9164 18.4552C14.8079 18.14 13.8756 17.412 13.3125 16.4075C12.7246 15.2596 12.5916 14.0742 12.8765 12.8018C13.3715 11.4321 14.2689 10.6044 15.5483 9.97859C16.0296 9.77017 16.4527 9.75056 16.9739 9.75428C17.047 9.75442 17.1201 9.75456 17.1955 9.7547C17.4283 9.75525 17.6611 9.75647 17.894 9.75772C18.0521 9.75821 18.2103 9.75865 18.3685 9.75905C18.7556 9.76013 19.1426 9.76181 19.5297 9.76382C19.4908 9.69169 19.4519 9.61956 19.4118 9.54524C18.861 8.49051 18.5944 7.56741 18.602 6.37637C18.6025 6.27445 18.6029 6.17253 18.6034 6.06752C18.6435 4.27595 19.358 2.92787 20.6039 1.65835C20.664 1.59591 20.724 1.53347 20.7859 1.46914C21.9037 0.396824 23.4505 -0.0602691 24.9679 -0.0506322ZM22.2641 4.29507C21.6576 5.25764 21.5079 6.30528 21.738 7.41626C22.0624 8.32211 22.7643 9.06047 23.6313 9.47085C24.4362 9.79349 25.4903 9.81074 26.3107 9.51968C27.2101 9.08967 27.8636 8.36128 28.2314 7.44372C28.458 6.62244 28.4408 5.58575 28.0697 4.81349C27.4926 3.89429 26.8008 3.36591 25.7797 3.02554C24.3128 2.92397 23.2781 3.13717 22.2641 4.29507ZM16.2277 13.1269C15.8431 13.5774 15.7753 13.8254 15.7879 14.4017C15.8335 14.7631 15.9677 14.9648 16.2094 15.2326C16.7195 15.6119 17.2126 15.6354 17.8333 15.6363C17.9289 15.6366 17.9289 15.6366 18.0264 15.6369C18.2392 15.6375 18.452 15.6375 18.6649 15.6374C18.8178 15.6377 18.9707 15.638 19.1236 15.6384C19.5384 15.6392 19.9532 15.6395 20.3681 15.6395C20.6274 15.6396 20.8867 15.6398 21.146 15.6401C22.051 15.641 22.956 15.6414 23.861 15.6413C24.704 15.6412 25.547 15.6423 26.39 15.6438C27.1143 15.6451 27.8386 15.6456 28.5628 15.6455C28.9952 15.6455 29.4276 15.6458 29.8599 15.6468C30.2666 15.6478 30.6733 15.6478 31.08 15.6471C31.229 15.647 31.378 15.6472 31.527 15.6478C31.731 15.6485 31.9349 15.6481 32.1388 15.6473C32.3098 15.6474 32.3098 15.6474 32.4842 15.6475C32.9951 15.6095 33.3788 15.5282 33.7692 15.1898C34.1538 14.7393 34.2216 14.4913 34.209 13.915C34.1634 13.5536 34.0291 13.3519 33.7875 13.0841C33.2774 12.7048 32.7843 12.6813 32.1636 12.6805C32.068 12.6801 32.068 12.6801 31.9705 12.6798C31.7577 12.6792 31.5449 12.6792 31.332 12.6793C31.1791 12.679 31.0262 12.6787 30.8733 12.6783C30.4585 12.6775 30.0437 12.6772 29.6288 12.6772C29.3695 12.6771 29.1102 12.6769 28.8509 12.6766C27.9459 12.6757 27.0409 12.6753 26.1359 12.6754C25.2929 12.6755 24.4499 12.6744 23.6069 12.6729C22.8826 12.6716 22.1583 12.6711 21.434 12.6712C21.0017 12.6712 20.5693 12.6709 20.137 12.6699C19.7303 12.6689 19.3236 12.6689 18.9169 12.6696C18.7679 12.6697 18.6189 12.6695 18.4699 12.6689C18.2659 12.6682 18.062 12.6686 17.8581 12.6694C17.7441 12.6693 17.6301 12.6693 17.5127 12.6692C17.0018 12.7072 16.6181 12.7885 16.2277 13.1269ZM4.40519 7.86563C4.35654 7.93971 4.30789 8.01379 4.25777 8.09012C3.78862 8.96008 3.75457 9.95965 3.64805 10.9244C3.60156 11.3139 3.54102 11.7005 3.47978 12.0879C2.88646 15.9067 2.86936 19.722 2.88541 23.5761C2.88569 23.643 2.88597 23.7099 2.88625 23.7788C2.89374 25.52 2.9079 27.261 2.92814 29.0021C3.17647 29.0963 3.4249 29.1903 3.67339 29.2841C3.74308 29.3106 3.81278 29.3371 3.88459 29.3644C4.44902 29.5771 5.01546 29.7551 5.60148 29.8993C5.74823 29.9355 5.74823 29.9355 5.89795 29.9724C8.77807 30.6476 11.6811 30.6441 14.5489 29.9471C15.9423 29.6173 15.9423 29.6173 16.5878 29.942C16.9299 30.202 17.053 30.3534 17.1859 30.7599C17.241 31.4297 17.082 31.9188 16.8319 32.536C16.7792 32.6706 16.7792 32.6706 16.7253 32.808C16.4801 33.4262 16.2138 34.0307 15.9195 34.6273C15.7995 34.8638 15.7995 34.8638 15.8188 35.1544C21.8774 35.1544 27.9359 35.1544 34.1781 35.1544C34.1013 34.7705 34.0238 34.5064 33.8676 34.158C33.8252 34.0622 33.7828 33.9664 33.7391 33.8677C33.6946 33.7687 33.6502 33.6696 33.6044 33.5675C32.606 31.3377 32.606 31.3377 32.8785 30.5696C33.0288 30.2695 33.1929 30.0826 33.464 29.8871C34.2311 29.6411 34.9661 29.83 35.7284 30.0153C38.6116 30.6746 41.5207 30.6081 44.3954 29.8993C44.5287 29.8665 44.5287 29.8665 44.6646 29.8331C45.2314 29.6838 45.7762 29.4921 46.3235 29.2841C46.3954 29.257 46.4674 29.2298 46.5415 29.2018C46.7173 29.1354 46.893 29.0688 47.0688 29.0021C47.0958 27.2301 47.1139 25.4581 47.1237 23.6859C47.1241 23.6202 47.1244 23.5545 47.1248 23.4867C47.1443 19.8865 47.0797 16.3215 46.6415 12.7423C46.6314 12.6591 46.6213 12.5758 46.6109 12.4901C46.3718 9.64455 46.3718 9.64455 45.045 7.1961C44.4503 6.75034 43.6662 6.81825 42.9615 6.89593C42.277 7.02327 41.7938 7.26681 41.3906 7.84274C41.0866 8.38631 40.9596 8.94468 41.1178 9.55749C41.4098 10.2153 42.0525 10.7026 42.5952 11.1523C43.0112 11.5621 43.0994 11.9011 43.1106 12.4677C43.1106 12.5935 43.1106 12.5935 43.1106 12.7217C43.1114 12.8095 43.1121 12.8973 43.1129 12.9878C43.1139 13.1735 43.1142 13.3591 43.1138 13.5448C43.1137 13.8258 43.1177 14.1066 43.1221 14.3876C43.1284 15.3749 43.0797 16.1178 42.5766 16.9904C42.0792 18.3251 42.0604 20.1498 42.5766 21.4826C42.6627 21.6623 42.7502 21.8413 42.839 22.0197C43.1075 22.5794 43.1703 23.1156 43.0649 23.7287C42.8806 24.1314 42.6852 24.3239 42.2836 24.5099C41.4246 24.689 40.759 24.3819 40.0123 24.0037C38.8633 23.4274 37.5766 23.2026 36.3022 23.2099C36.2038 23.2103 36.1055 23.2107 36.0041 23.2111C35.021 23.2259 34.1559 23.3817 33.2382 23.747C32.6816 23.961 32.132 24.0179 31.5414 23.924C31.0937 23.7198 31.0316 23.5951 30.7602 23.1427C30.543 21.6227 30.4624 20.0856 30.3695 18.5529C26.8246 18.5529 23.2797 18.5529 19.6274 18.5529C19.5629 19.6164 19.4984 20.6798 19.432 21.7755C19.1941 23.4411 19.1941 23.4411 18.7145 23.805C18.1443 24.067 17.5303 23.9981 16.941 23.821C16.7189 23.7385 16.4981 23.6523 16.2792 23.5616C14.0879 22.8012 11.6452 23.1957 9.59394 24.1597C9.41798 24.2454 9.24293 24.3335 9.07323 24.431C8.8127 24.5403 8.58691 24.5394 8.30533 24.5404C8.20576 24.5421 8.10618 24.5437 8.00359 24.5454C7.66533 24.5041 7.49353 24.4255 7.22501 24.2169C6.89383 23.7795 6.8724 23.4226 6.8836 22.8879C6.95592 22.3936 7.15174 21.9792 7.37073 21.5333C7.69094 20.7859 7.74865 20.0615 7.74381 19.2548C7.74333 19.1601 7.74285 19.0654 7.74236 18.9678C7.7299 18.2057 7.68526 17.4537 7.29859 16.7775C6.81969 15.9354 6.85449 15.0671 6.86302 14.1257C6.86491 13.8465 6.86103 13.5679 6.8567 13.2888C6.85667 13.1093 6.85698 12.9298 6.85766 12.7503C6.85616 12.668 6.85467 12.5857 6.85313 12.5009C6.86558 11.8625 7.08274 11.4932 7.51798 11.0334C7.68237 10.8817 7.85015 10.7366 8.02135 10.5927C8.49313 10.1847 8.856 9.8145 8.93559 9.17655C8.94996 8.53855 8.77343 8.00261 8.35416 7.51773C7.72648 6.91391 6.91693 6.82931 6.07715 6.83716C5.26277 6.91455 4.85023 7.18577 4.40519 7.86563ZM11.3937 39.0058C11.3393 39.0883 11.2849 39.1709 11.2289 39.256C11.1745 39.3386 11.1202 39.4212 11.0641 39.5063C10.871 39.9654 10.871 39.9654 10.8383 41.0138C20.184 41.0138 29.5297 41.0138 39.1586 41.0138C39.0505 39.6788 39.0505 39.6788 38.2858 38.6823C37.4659 38.1134 36.7196 38.0694 35.7511 38.0711C35.6076 38.0707 35.6076 38.0707 35.4612 38.0704C35.1415 38.0698 34.8218 38.0699 34.5021 38.0699C34.2725 38.0697 34.0429 38.0693 33.8133 38.069C33.1902 38.0681 32.5672 38.0679 31.9441 38.0678C31.4894 38.0677 31.0347 38.0674 30.58 38.0671C29.3569 38.0663 28.1337 38.066 26.9106 38.066C26.8412 38.066 26.7718 38.066 26.7003 38.066C26.6309 38.066 26.5614 38.066 26.4898 38.066C25.3638 38.0661 24.2379 38.0652 23.1119 38.0638C21.9546 38.0624 20.7973 38.0617 19.6401 38.0618C18.9908 38.0618 18.3415 38.0615 17.6923 38.0605C17.0816 38.0596 16.471 38.0595 15.8604 38.0603C15.6365 38.0604 15.4126 38.0601 15.1888 38.0595C14.8827 38.0588 14.5766 38.0592 14.2706 38.06C14.1824 38.0595 14.0942 38.059 14.0034 38.0585C12.9844 38.064 12.1153 38.2452 11.3937 39.0058ZM7.48746 44.8651C6.95317 45.6765 7.00943 45.9851 6.93204 47.0685C18.8559 47.0685 30.7797 47.0685 43.0649 47.0685C42.9901 45.6144 42.9901 45.6144 42.1921 44.5417C41.2723 43.9035 40.4447 43.9291 39.3608 43.9305C39.2332 43.9302 39.1056 43.93 38.9742 43.9298C38.6211 43.9292 38.2681 43.9292 37.915 43.9293C37.5338 43.9293 37.1527 43.9288 36.7715 43.9283C36.0251 43.9275 35.2787 43.9272 34.5324 43.9272C33.9256 43.9271 33.3189 43.9269 32.7121 43.9266C30.9913 43.9258 29.2705 43.9253 27.5497 43.9254C27.457 43.9254 27.3643 43.9254 27.2687 43.9254C27.1295 43.9254 27.1295 43.9254 26.9874 43.9254C25.4825 43.9255 23.9777 43.9245 22.4728 43.9232C20.9271 43.9217 19.3814 43.9211 17.8356 43.9212C16.968 43.9212 16.1004 43.9209 15.2329 43.9199C14.4943 43.919 13.7557 43.9188 13.0171 43.9194C12.6404 43.9198 12.2637 43.9198 11.887 43.9189C11.4783 43.918 11.0696 43.9186 10.6609 43.9194C10.4831 43.9186 10.4831 43.9186 10.3016 43.9178C9.21216 43.9223 8.26726 44.0432 7.48746 44.8651Z" fill="#181818"/>
</g>
<defs>
<clipPath id="clip0_8881_7000">
<rect width="50" height="50" fill="white"/>
</clipPath>
</defs>
</svg>
