<svg width="18" height="18" viewBox="0 0 18 18" fill="none" xmlns="http://www.w3.org/2000/svg">
<path fill-rule="evenodd" clip-rule="evenodd" d="M0.449219 8.35797C0.778044 3.93544 4.48038 0.449219 8.99922 0.449219C8.28686 0.449219 7.6526 0.760617 7.13083 1.23678C6.61167 1.71056 6.17295 2.37192 5.8181 3.15371C5.46116 3.94012 5.1839 4.85989 4.99624 5.85805C4.84581 6.65818 4.75427 7.5017 4.72375 8.35797H0.449219ZM0.449219 9.64047H4.72375C4.75427 10.4967 4.84581 11.3403 4.99624 12.1404C5.1839 13.1385 5.46116 14.0583 5.8181 14.8447C6.17295 15.6265 6.61167 16.2879 7.13083 16.7617C7.6526 17.2378 8.28686 17.5492 8.99922 17.5492C4.48038 17.5492 0.778044 14.063 0.449219 9.64047Z" fill="white"/>
<path d="M8.99922 1.64224C8.76344 1.64224 8.45883 1.74229 8.10464 2.06552C7.74782 2.39115 7.39062 2.90148 7.07503 3.59679C6.76153 4.28749 6.50696 5.12129 6.33179 6.05305C6.19383 6.78684 6.10825 7.56469 6.07821 8.35797H11.9202C11.8902 7.56469 11.8046 6.78684 11.6667 6.05306C11.4915 5.12129 11.2369 4.28749 10.9234 3.59679C10.6078 2.90149 10.2506 2.39115 9.8938 2.06553C9.53961 1.74229 9.23501 1.64224 8.99922 1.64224Z" fill="white"/>
<path d="M6.33179 11.9454C6.50696 12.8772 6.76153 13.7109 7.07503 14.4016C7.39062 15.097 7.74782 15.6073 8.10464 15.9329C8.45883 16.2561 8.76344 16.3562 8.99922 16.3562C9.235 16.3562 9.53961 16.2561 9.8938 15.9329C10.2506 15.6073 10.6078 15.097 10.9234 14.4016C11.2369 13.7109 11.4915 12.8772 11.6667 11.9454C11.8046 11.2116 11.8902 10.4337 11.9202 9.64047H6.07821C6.10825 10.4337 6.19383 11.2116 6.33179 11.9454Z" fill="white"/>
<path d="M8.99922 0.449219C9.71158 0.449219 10.3458 0.760617 10.8676 1.23678C11.3868 1.71056 11.8255 2.37192 12.1803 3.15372C12.5373 3.94012 12.8145 4.85989 13.0022 5.85805C13.1526 6.65818 13.2442 7.5017 13.2747 8.35797H17.5492C17.2204 3.93544 13.5181 0.449219 8.99922 0.449219Z" fill="white"/>
<path d="M13.0022 12.1404C12.8145 13.1385 12.5373 14.0583 12.1803 14.8447C11.8255 15.6265 11.3868 16.2879 10.8676 16.7617C10.3458 17.2378 9.71158 17.5492 8.99922 17.5492C13.5181 17.5492 17.2204 14.063 17.5492 9.64047H13.2747C13.2442 10.4967 13.1526 11.3403 13.0022 12.1404Z" fill="white"/>
</svg>
